<svg xmlns="http://www.w3.org/2000/svg" width="1106.987" height="350.173" xmlns:v="https://vecta.io/nano"><path d="M102.102 154.984c-1.005-.955-2.694-.921-3.81-.899l-.409.005c-1.694 0-3.303-.117-4.366-1.544-1.285-1.679-1.267-6.959-1.26-9.212l.002-.513V84.254l-.037-1.703c-.074-2.516-.199-6.731.917-8.184.693-.955 2.545-.884 4.032-.824l.974.027c3.659 0 4.053-2.288 4.053-3.269 0-.867-.26-1.539-.774-1.996-.865-.767-2.128-.661-3.145-.575l-.788.047h-14.56c-1.505 0-3.38 0-4.393 2.501l-26.052 65.021-22.972-62.592-.314-1.019c-.571-1.924-1.161-3.912-3.958-3.912H10.071c-.228 0-.5-.024-.79-.047-1.016-.087-2.281-.192-3.145.575-.514.457-.774 1.129-.774 1.996 0 .981.396 3.269 4.055 3.269 2.953 0 4.811.155 5.573.943.816.845.835 2.755.574 6.464l-4.055 62.971c-.411 7.537-.877 10.144-7.195 10.144-3.756 0-4.315 1.723-4.315 2.752 0 1.189.521 2.608 3.006 2.608 1.91 0 3.878-.121 5.781-.239 1.923-.117 3.911-.24 5.862-.24 1.932 0 3.913.121 5.827.236 1.942.12 3.953.243 5.943.243 1.135 0 3.793 0 3.793-2.608 0-.704-.252-1.319-.724-1.772-1.038-1-2.821-.988-4.001-.98h-.245c-2.609 0-4.479-.616-5.716-1.883-2.446-2.507-2.364-7.42-2.003-13.577l3.647-56.176 25.026 70.246.031.116c.295 1.164.844 3.332 2.819 3.332 1.675 0 2.274-1.681 2.671-2.795l.147-.407 28.181-72.053v61.927l.004.772c.021 2.477.057 7.089-1.68 8.689-1.234 1.132-3.775 1.808-5.518 1.808l-.408-.005c-1.118-.023-2.807-.056-3.811.899-.498.469-.75 1.097-.75 1.859 0 1.189.59 2.608 3.401 2.608 2.552 0 5.181-.121 7.722-.239 2.578-.117 5.243-.24 7.869-.24 2.078 0 4.199.121 6.251.239 2.069.117 4.209.24 6.327.24 2.81 0 3.401-1.419 3.401-2.608 0-.761-.254-1.389-.75-1.859m55.754-43.578c-2.237 0-3.747-2.581-5.656-5.852-2.712-4.644-6.089-10.424-12.416-10.424-4.756 0-10.109 2.927-13.307 5.827-6.035 5.629-9.644 14.352-9.644 23.325 0 14.232 9.514 29.595 24.883 29.595 6.015 0 11.269-2.155 15.196-6.228l.251-.292c.819-.967 1.569-1.765 2.487-1.765 1.037 0 1.881.928 1.881 2.069 0 .816-.46 2.323-4.425 5.968-5.688 4.939-12.817 7.541-20.632 7.541-17.193 0-31.716-15.539-31.716-33.931 0-19.808 16.799-36.543 36.683-36.543 5.131 0 12.804 1.583 17.524 5.063 1.815 1.349 1.652 3.903 1.52 5.955-.029.46-.057.896-.057 1.26 0 .148.019.436.039.769.169 2.696.243 5.681-1.041 7-.421.435-.963.663-1.568.663m108.523 43.578c-1.005-.955-2.695-.921-3.811-.899l-.408.005c-1.696 0-3.305-.117-4.368-1.544-1.284-1.679-1.267-6.959-1.26-9.212l.003-.513V84.254l-.037-1.703c-.075-2.516-.199-6.731.915-8.184.695-.955 2.547-.884 4.035-.824l.976.027c3.657 0 4.051-2.288 4.051-3.269 0-.867-.259-1.539-.773-1.996-.864-.767-2.129-.661-3.147-.575l-.785.047h-14.559c-1.507 0-3.38 0-4.395 2.501l-26.053 65.021-22.971-62.592-.315-1.019c-.569-1.924-1.159-3.912-3.957-3.912h-15.173c-.224 0-.497-.024-.788-.047-1.015-.087-2.28-.192-3.145.575-.513.457-.773 1.129-.773 1.996 0 .981.395 3.269 4.055 3.269 2.952 0 4.813.155 5.573.943.816.845.835 2.755.576 6.464l-4.056 62.971c-.412 7.537-.877 10.144-7.195 10.144-3.755 0-4.316 1.723-4.316 2.752 0 1.189.521 2.608 3.007 2.608 1.911 0 3.877-.121 5.78-.239 1.924-.117 3.911-.24 5.863-.24 1.932 0 3.912.121 5.827.236 1.943.12 3.952.243 5.944.243 1.135 0 3.792 0 3.792-2.608 0-.704-.249-1.319-.724-1.772-1.037-1-2.82-.988-4-.98h-.245c-2.609 0-4.479-.616-5.716-1.883-2.447-2.507-2.364-7.42-2.004-13.577l3.648-56.176 25.027 70.246.029.116c.296 1.164.844 3.332 2.821 3.332 1.673 0 2.272-1.681 2.668-2.795l.149-.407 28.181-72.053v61.927l.003.773c.02 2.476.06 7.088-1.68 8.688-1.233 1.132-3.775 1.808-5.517 1.808l-.411-.005c-1.116-.023-2.805-.056-3.809.899-.499.469-.748 1.097-.748 1.859 0 1.189.588 2.608 3.399 2.608 2.553 0 5.179-.121 7.723-.239 2.576-.117 5.244-.24 7.869-.24 2.077 0 4.197.121 6.249.239 2.069.117 4.209.24 6.328.24 2.809 0 3.4-1.419 3.4-2.608 0-.761-.253-1.389-.749-1.859m27.726-23.333c-5.389 2.945-10.377 6.573-10.377 13.144 0 5.793 4.673 7.848 8.676 7.848 4.36 0 8.939-2.105 12.249-5.629 3.107-3.448 3.237-5.713 3.237-10.508v-8.883c0-.103.009-.24.02-.428.125-2.249-.12-2.771-.235-2.892l.159.061.027-.003c-.119.019-.46.185-.641.273-.211.103-.408.2-.601.267l.131-.056-12.644 6.805m9.137-9.848c4.648-2.339 4.648-2.339 4.648-7.503v-6.515c0-7.737-.537-12.437-7.981-12.437-7.176 0-11.561 3.444-15.137 11.887l-.296.684c-.845 1.98-1.721 4.028-3.992 5.104-1.409.765-4.411 2.015-6.279 2.015-1.811 0-2.691-.871-2.691-2.661 0-4.176 3.248-8.62 6.027-11.155 6.716-6.473 16.465-10.503 25.425-10.503 6.004 0 10.455 1.401 13.24 4.163 3.155 2.823 3.089 6.439 3.028 9.936l-.017 1.487v34.939.257c-.001 2.38-.008 7.949 2.076 9.967a2.52 2.52 0 0 0 1.837.733c1.76 0 2.972-1.249 3.941-2.251.756-.779 1.404-1.451 2.265-1.451 1.041 0 1.884.929 1.884 2.071 0 1.943-2.26 4.003-3.473 5.109l-.125.113c-2.845 2.133-6.528 4.515-10.42 4.515-5.008 0-7.012-4.808-8.337-7.992-.384-.919-.908-2.179-1.201-2.383l.171.043.204-.035c-.247.109-1.084.836-1.824 1.477-3.656 3.172-11.26 9.772-20.761 9.772-6.691 0-13.801-4.397-13.801-12.547 0-10.633 12.019-16.892 19.971-21.032l.903-.471 10.717-5.337m32.493 18.684l.023-.212c.141-1.247.429-3.839 2.679-3.839 2.451 0 3.015 2.857 3.668 6.164 1.18 5.976 2.796 14.16 14.467 14.16 7.74 0 15.969-4.785 15.969-13.653 0-8.189-6.548-11.216-12.687-13.409l-1.249-.427c-8.663-2.967-20.531-7.029-20.531-19.096 0-5.608 2.659-10.617 7.687-14.489 4.451-3.359 9.977-4.987 16.9-4.987 3.6 0 11.072.973 14.595 2.497 2.443 1.244 2.26 3.941 2.116 6.109-.035.495-.068.96-.068 1.375 0 .101.024.38.051.676.223 2.641.359 5.564-.863 6.847a1.99 1.99 0 0 1-1.473.632c-1.733 0-2.448-1.767-3.356-4.001-1.696-4.197-4.02-9.943-13.491-9.943-4.831 0-11.817 3.592-11.817 10.092 0 7.348 6.733 9.812 14.528 12.663 9.369 3.427 19.985 7.311 19.985 21.012 0 15.544-15.863 22.536-27.123 22.536-4.721 0-13.089-1.832-18.036-4.559-2.451-1.151-2.424-3.313-2.4-5.408l.005-.701.421-10.039m88.777 10.089c0-.908-.807-1.927-1.88-1.927-.696 0-1.303.52-2.407 1.461-1.748 1.491-4.388 3.745-7.528 3.745-1.685 0-3.019-.5-4.077-1.525-3.149-3.048-3.145-10.052-3.144-14.684v-.311-37.637c0-1.456.259-2 .477-2.201.348-.319 1.189-.281 2.255-.231.437.02.932.043 1.455.043h7.727c.56 0 1.06.025 1.5.047 1.229.06 2.197.108 2.907-.543.692-.637.785-1.679.785-2.713 0-1.091 0-2.917-2.157-2.917l-13.585.001c-1.104-.084-1.363-.176-1.363-2.084V78.561c0-2.204-1.097-2.668-2.017-2.668-1.348 0-1.975 1.352-2.216 1.873-3.083 6.931-6.869 10.477-12.851 14.648l-.315.255c-.697.555-1.652 1.312-1.652 2.593a1.82 1.82 0 0 0 .621 1.403c.949.849 2.644.792 4.157.671l.409-.028.877-.011c.575-.013 1.291-.028 1.416.091.059.053.241.335.241 1.713v38.233l-.013 2.109c-.063 5.752-.129 12.271 3.221 16.847 2.335 3.069 6.316 4.901 10.655 4.901 4.827 0 9.597-2.057 13.439-5.792.837-.659 3.063-2.841 3.063-4.825m15.859-45.969c3.964-5.932 10.383-9.475 17.164-9.475 3.42 0 8.156.741 11.305 4.257 2.045 2.347 3.369 5.536 3.369 8.127 0 2.745-1.36 4.3-4.424 5.044-3.88 1-11.544 1.148-15.767 1.148h-11.173c-.211 0-.437.008-.681.016-.939.032-2.36.079-2.876-.404-.095-.089-.221-.252-.221-.641 0-2.036 2.009-6.377 3.304-8.072m41.859 38.643c-.856 0-1.576.693-2.887 1.952-2.793 2.687-7.996 7.689-17.531 7.689-16.968 0-25.847-15.148-25.847-30.112 0-1.808.2-2.843.631-3.259.485-.468 1.649-.464 3.409-.456l.699.003h41.8c.775 0 2.572-.335 2.572-3.427 0-5.064-2.105-11.552-5.007-15.431-4.603-6.045-12.112-9.512-20.603-9.512-9.611 0-18.417 3.507-25.464 10.139-6.996 6.553-10.115 14.372-10.115 25.353 0 19.627 14.173 35.001 32.267 35.001 9.049 0 15.967-2.636 22.429-8.552l.095-.089c3.851-3.543 5.568-5.771 5.568-7.227 0-1.164-.884-2.073-2.017-2.073m43.95-51.821c-7.36 0-12.304 6.52-14.96 10.023-.376.5-.785 1.036-1.107 1.417a11.25 11.25 0 0 1 0-1.399l.013-.4v-7.271l.001-.213c.008-.707.02-1.676-.647-2.331-.26-.253-.731-.556-1.511-.556-1.308 0-2.144 1.009-2.755 1.748-.144.171-.275.332-.449.524-2.169 2.767-7.952 6.433-11.027 7.395-.164.059-.355.12-.555.181-1.203.377-3.215 1.009-3.215 3.164 0 1.256 1.008 2.068 2.569 2.068h1.792c1.609 0 2.864.321 3.324.892 1.173 1.26 1.152 6.627 1.144 8.388l-.001.487v27.813c0 .835.023 1.639.041 2.417.144 5.587-.025 8.296-5.429 8.833-.208.02-.453.032-.707.044-1.388.069-3.975.195-3.975 2.928 0 1.491 1.063 2.38 2.845 2.38 2.147 0 4.359-.111 6.499-.219 2.163-.108 4.401-.22 6.596-.22 2.007 0 4.049.103 6.215.212 2.201.112 4.473.227 6.741.227 1.588 0 2.571-.971 2.571-2.529 0-2.489-2.645-2.675-4.067-2.773l-.617-.049c-5.401-.537-5.571-3.247-5.427-8.833l.041-2.417v-23.375-.693c-.005-5.487-.008-9.109 3.001-13.696 1.471-1.983 3.697-4.976 6.292-4.976 1.321 0 2.084.864 3.217 2.275 1.204 1.499 2.704 3.367 5.609 3.367 3.952 0 6.709-2.805 6.709-6.823 0-4.567-3.772-8.009-8.776-8.009M46.307 193.235l.001-.461c.004-1.925.015-6.435-.793-7.887-.734-1.449-2.229-1.561-4.108-1.561h-.135c-.658.003-1.758.012-2.464-.665-.257-.247-.56-.685-.56-1.383 0-.568.202-1.065.587-1.436.47-.456 1.191-.697 2.079-.697 1.269 0 2.544.095 3.775.189l3.628.184c1.029 0 2.047-.091 3.128-.184l3.293-.189c2.409 0 2.669 1.431 2.669 2.047 0 1.416-1.204 2.135-3.575 2.135-3.082 0-3.234 1.477-3.301 5.123l-.04 1.453.002 27.634c0 5.496 0 10.242-4.812 14.756-3.596 3.334-8.865 4.952-16.114 4.952-3.913 0-11.184-.556-15.896-4.28-5.225-3.865-5.222-9.22-5.217-14.889v-.539-27.848l.004-1.053c.012-2.361.021-3.923-.651-4.575-.522-.509-1.683-.735-3.762-.735-1.988 0-2.997-.691-2.997-2.048 0-.651.196-1.171.583-1.545.408-.396.982-.588 1.756-.588 1.59 0 3.154.095 4.664.188 1.486.089 3.022.185 4.562.185s3.12-.096 4.646-.187c1.549-.092 3.152-.187 4.742-.187 1.441 0 2.337.816 2.337 2.133 0 1.357-1.036 2.048-3.079 2.048-2.075 0-3.236.225-3.756.735-.671.652-.663 2.213-.651 4.573l.002 1.055v25.011.876c-.011 3.784-.029 9.5 1.608 12.337 2.771 4.919 10.269 5.3 12.501 5.3 3.161 0 9.003-.581 12.622-4.488 2.725-3.016 2.722-6.644 2.721-10.845v-24.644m54.267 39.377l-.355-.029c-2.858-.284-2.972-1.485-2.884-4.916l.023-1.457v-14.023l.002-.713c.009-4.123.018-8.385-2.628-12.061-2.464-3.389-5.987-5.108-10.469-5.108-5.61 0-9.624 3.683-12.022 5.884l-.553.501v-4.061l.002-.147c.005-.517.012-1.228-.505-1.735-.207-.203-.578-.443-1.173-.443-.971 0-1.56.715-1.951 1.188l-.272.323c-1.216 1.559-4.609 3.732-6.388 4.289l-.318.104c-.763.24-2.189.689-2.189 2.253 0 .967.774 1.615 1.927 1.615h1.07c.998 0 1.53.213 1.689.409.273.296.597 1.363.583 4.773v.292 16.668c0 .504.013.988.023 1.455.089 3.425-.027 4.625-2.881 4.909l-.405.027c-.82.037-2.746.131-2.746 2.112 0 .826.547 1.79 2.092 1.79 1.303 0 2.633-.094 3.919-.185 1.28-.091 2.601-.188 3.883-.188 1.171 0 2.378.088 3.658.18 1.323.095 2.692.194 4.07.194 1.171 0 1.927-.737 1.927-1.878 0-1.829-1.957-1.964-2.794-2.021l-.356-.029c-2.861-.284-2.976-1.484-2.888-4.911l.023-1.453v-14.896c0-3.492.218-5.156 2.409-7.595 2.018-2.26 4.662-3.503 7.445-3.503 2.994 0 5.586 1.325 6.941 3.552 1.35 2.181 1.35 5.585 1.35 8.319v14.113c0 .505.012.988.023 1.456.088 3.432-.027 4.633-2.886 4.917l-.403.027c-.823.037-2.749.131-2.749 2.112 0 .826.547 1.79 2.093 1.79 1.303 0 2.635-.096 3.924-.185 1.278-.091 2.599-.188 3.883-.188 1.171 0 2.379.088 3.657.18 1.323.095 2.691.194 4.065.194 1.171 0 1.927-.737 1.927-1.878 0-1.829-1.956-1.964-2.792-2.021m20.359-6.395l-.023 1.455c-.089 3.425.027 4.625 2.883 4.91l.357.028c.836.057 2.792.192 2.792 2.021 0 1.142-.756 1.879-1.927 1.879-1.374 0-2.744-.098-4.065-.195l-3.656-.179-3.881.187-3.92.186c-1.544 0-2.093-.965-2.093-1.791 0-1.981 1.926-2.074 2.747-2.112l.403-.026c2.856-.285 2.97-1.485 2.883-4.91l-.023-1.455v-16.668-.292c.014-3.411-.308-4.477-.583-4.773-.159-.195-.69-.407-1.687-.407h-1.071c-1.152 0-1.927-.651-1.927-1.617 0-1.564 1.424-2.013 2.189-2.253l.318-.104c1.779-.557 5.17-2.731 6.388-4.289l.274-.321c.389-.475.977-1.189 1.949-1.189.595 0 .966.24 1.173.443.517.507.51 1.216.505 1.735l-.002.147zm-8.285-42.971c0-2.993 2.041-5.337 4.646-5.337 2.753 0 4.397 2.624 4.397 5.161 0 3.192-1.833 5.336-4.563 5.336-2.596 0-4.48-2.171-4.48-5.16m58.222 12.512c-.421-.388-.936-.363-1.309-.345l-.261.008h-12.11c-.539 0-2.177 0-2.177 1.692 0 1.868 2.384 1.868 3.167 1.868.535 0 2.279.107 2.279 1.495 0 .697-.469 1.991-.78 2.848l-.247.697c.019-.052-6.367 15.016-8.792 20.739l-7.584-20.063-.112-.289c-.373-.957-1.148-2.948-1.148-3.844 0-1.249 1.328-1.583 2.112-1.583l.264.011c.717.037 1.799.093 2.484-.536.328-.3.503-.705.503-1.168 0-.572-.175-1.027-.517-1.355-.544-.524-1.291-.519-1.839-.513l-.151.001h-14.885l-.155-.001c-.453-.005-1.075-.012-1.547.439-.312.299-.469.72-.469 1.255 0 1.24.841 1.868 2.449 1.867 2.621.135 2.979 1.105 4.046 3.989l.217.583 11.951 31.118.481 1.114c.249.896.875 1.471 1.624 1.471 1.143 0 1.721-1.343 2.105-2.233l.101-.231.036-.059.027-.063 11.799-27.527.517-1.259c1.233-3.055 2.633-6.517 5.489-6.912l.239-.025c.72-.075 2.632-.271 2.632-2.005 0-.193 0-.779-.439-1.183m11.439 7.47c2.292-3.447 5.996-5.503 9.909-5.503 1.956 0 4.664.421 6.441 2.413 1.165 1.341 1.919 3.157 1.919 4.627 0 1.477-.676 2.245-2.348 2.653-2.271.588-6.804.676-9.305.676h-6.667l-.413.009c-.309.011-1.253.041-1.429-.135l-.015-.112c0-1.132 1.168-3.656 1.908-4.629m24.64 22.567c-.675 0-1.172.483-2.001 1.281-1.627 1.575-4.655 4.507-10.179 4.507-9.864 0-15.025-8.907-15.025-17.703 0-1.299.183-1.615.261-1.691.177-.168.981-.165 1.759-.164l.413.003h24.939c.451 0 1.925-.175 1.925-2.407 0-3.099-1.285-7.075-3.061-9.457-2.823-3.719-7.416-5.851-12.609-5.851-5.84 0-11.189 2.137-15.467 6.176-4.288 4.004-6.201 8.764-6.201 15.437 0 11.96 8.651 21.328 19.692 21.328 5.511 0 9.72-1.593 13.712-5.227 3.032-2.809 3.441-3.909 3.441-4.614a1.59 1.59 0 0 0-1.599-1.62m29.422-30.981c-4.537 0-7.544 3.904-9.185 6.069v-4.272l.003-.144c.005-.512.013-1.213-.503-1.719-.209-.203-.58-.444-1.175-.444-.971 0-1.559.716-1.949 1.189l-.275.321c-1.216 1.559-4.608 3.733-6.385 4.289l-.319.104c-.765.241-2.191.688-2.191 2.252 0 .967.776 1.617 1.928 1.617h1.069c.999 0 1.529.212 1.688.408.275.295.597 1.364.583 4.772v.295 16.665c0 .506.013.988.025 1.456.088 3.427-.028 4.627-2.883 4.91l-.403.027c-.824.037-2.748.129-2.748 2.11 0 .827.548 1.79 2.092 1.79 1.303 0 2.633-.095 3.919-.185 1.277-.092 2.599-.187 3.884-.187 1.171 0 2.379.087 3.655.179 1.324.096 2.691.194 4.067.194 1.172 0 1.927-.736 1.927-1.878 0-1.829-1.959-1.964-2.792-2.021l-.355-.028c-2.857-.284-2.975-1.484-2.885-4.91l.023-1.456v-14.005-.408c-.001-3.3-.003-5.292 1.719-7.921.832-1.12 2.088-2.816 3.432-2.816.607 0 .988.439 1.609 1.212.732.912 1.731 2.16 3.66 2.16 2.588 0 4.396-1.833 4.396-4.457 0-2.947-2.419-5.168-5.631-5.168m9.056 29.63l.016-.124c.087-.79.292-2.635 1.989-2.635 1.781 0 2.161 1.936 2.564 3.986.713 3.635 1.603 8.161 8.228 8.161 4.432 0 9.144-2.728 9.144-7.78 0-4.196-2.801-6.042-7.323-7.657l-.713-.246c-5.279-1.809-12.509-4.288-12.509-11.78 0-3.471 1.624-6.568 4.699-8.957 2.739-2.093 6.119-3.108 10.337-3.108 2.184 0 6.733.611 8.9 1.573 1.708.864 1.585 2.688 1.495 4.019a12.16 12.16 0 0 0-.037.797l.027.372c.14 1.657.223 3.499-.616 4.381a1.61 1.61 0 0 1-1.176.501c-1.309 0-1.828-1.283-2.38-2.64-.976-2.404-2.309-5.693-7.699-5.693-2.724 0-6.667 2.012-6.667 5.651 0 4.129 3.912 5.557 8.44 7.213 5.724 2.089 12.211 4.461 12.211 12.913 0 8.672-8.453 13.852-16.629 13.852-2.864 0-7.937-1.116-10.928-2.779-1.66-.779-1.644-2.26-1.628-3.564l.004-.416.252-6.043m44.686-36.033c2.731 0 4.564-2.144 4.564-5.337 0-2.536-1.645-5.16-4.399-5.16-2.604 0-4.644 2.345-4.644 5.339s1.884 5.159 4.479 5.159m7.021 44.203l-.357-.029c-2.856-.284-2.969-1.484-2.883-4.909l.025-1.455v-29.591-.147c.007-.517.012-1.228-.505-1.735-.207-.203-.577-.443-1.172-.443-.971 0-1.56.715-1.951 1.188l-.273.323c-1.216 1.559-4.608 3.732-6.385 4.289l-.317.104c-.765.24-2.189.689-2.189 2.253 0 .967.773 1.615 1.925 1.615h1.071c.997 0 1.528.213 1.687.409.273.296.599 1.363.585 4.773l-.003.292v16.668l.025 1.455c.088 3.425-.028 4.625-2.881 4.909l-.407.027c-.821.037-2.745.131-2.745 2.112 0 .826.548 1.79 2.092 1.79l3.92-.185 3.881-.188 3.659.18 4.063.194c1.172 0 1.929-.737 1.929-1.878 0-1.829-1.957-1.964-2.793-2.021m27.491-2.114c0-.726-.621-1.535-1.513-1.535-.567 0-.995.368-1.701.973-.996.855-2.504 2.145-4.227 2.145-.895 0-1.597-.26-2.152-.797-1.767-1.712-1.767-5.815-1.765-8.529v-.184-22.539c0-.864.159-1.036.164-1.043.121-.079.681-.051 1.055-.035l.888.028h4.608l.876.027c.791.039 1.479.073 2.023-.429.523-.479.595-1.196.595-1.899 0-.583 0-2.129-1.68-2.129l-8.075.004a1.11 1.11 0 0 1-.375-.071c-.024-.051-.079-.215-.079-.795v-6.287c0-1.78-1.116-1.971-1.593-1.971-1.059 0-1.523 1.004-1.683 1.348-1.796 4.056-4.016 6.135-7.549 8.605l-.177.143c-.452.359-1.133.901-1.133 1.847a1.49 1.49 0 0 0 .501 1.123c.685.609 1.793.576 2.78.499l.212-.015c.196 0 .375-.004.531-.008.184-.003.399-.008.539-.001.025.111.047.311.047.703v22.895l-.009 1.26c-.035 3.501-.076 7.468 1.991 10.315 1.461 1.948 3.953 3.112 6.664 3.112 2.979 0 5.917-1.275 8.277-3.585.577-.457 1.963-1.839 1.963-3.174m43.458-35.076h-13.08c-1.157 0-2.093.915-2.093 2.041 0 1.519 1.987 1.519 2.833 1.519 2.268 0 3.417.768 3.417 2.284 0 .823-.629 2.315-1.007 3.205l-.076.177c-.003.013-6.016 15.136-8.329 20.938l-8.337-21.536-.072-.175c-.381-.988-.856-2.217-.856-3.143 0-1.704 2.919-1.752 3.255-1.752 1.932 0 2.912-.511 2.912-1.519 0-1.34-1.052-2.041-2.091-2.041h-15.88c-1.475 0-2.501.839-2.501 2.041 0 1.519 2.04 1.519 2.913 1.519 2.035 0 2.881 1.876 3.939 4.741l.367.971 10.849 27.655a18.9 18.9 0 0 0 .365.94c.344.851.736 1.817.736 2.579 0 .616-.221 1.176-.48 1.821a12 12 0 0 0-.196.512l-2.799 7.01c-.085.216-.165.436-.244.651-.392 1.096-.697 1.828-1.32 1.985-.813.188-1.835.172-2.733.159l-.668-.007c-3.573 0-3.573 3.067-3.573 4.378 0 1.134.332 2.028.984 2.658 1.139 1.103 2.943 1.099 4.393 1.099h.173c3.583 0 4.024-.957 4.867-3.985l.041-.159 16.527-42.057c.707-1.769 2.845-7.153 4.419-9.296.709-.976 2.227-1.591 2.899-1.664l.393-.041c.836-.076 2.229-.205 2.229-1.383 0-1.272-.876-2.127-2.176-2.127m86.267 154.333c-39.529-11.844-63.487-50.277-65.581-73.472-.021-.317-.028-97.162-.028-97.162h135.13v96.595c-2.096 23.468-26.031 62.203-65.539 74.04l-1.919.42-2.064-.42" fill="#fff"/><path d="M392.112 182.378l.013 93.621c2.016 22.277 25.108 59.22 63.224 70.643l.596.176.201.059.197.063.204-.063.2-.059.595-.176c38.083-11.412 61.153-48.489 63.167-70.927v-93.337H392.112" fill="#435362"/><path d="M434.967 194.811v20.104h17.935l.083-.168c.012-.027 1.275-2.56 3.561-2.58h.029c2.312 0 3.563 2.552 3.573 2.577l.083.171h17.939v-20.104h-43.203" fill="#76133a"/><g fill="#f9b83e"><path d="M456.168 219.304h60.976v56.41c-1.755 19.396-22.609 56.371-60.799 67.811-38.185-11.44-59.115-48.414-60.867-67.811v-56.41h60.976m-43.903-4.958l.933-.643c.441-.289.991-.649 1.068-1.793a10.73 10.73 0 0 0-.345-3.44l-5.66.464 1.243-1.927-5.703-5.225 1.728-.524-.999-3.793 3.649.759.688-1.883 2.128 2.335-.619-6.035 2.24 1.792 2.405-4.541 2.405 4.541 2.239-1.792-.619 6.035 2.128-2.335.691 1.883 3.647-.759-1 3.793 1.732.524-5.705 5.225 1.24 1.927-5.649-.463a12.72 12.72 0 0 0-.352 3.447c.044 1.123.605 1.487 1.057 1.779l.948.649h-5.519m81.697 0l.945-.649c.449-.293 1.009-.656 1.055-1.779a12.6 12.6 0 0 0-.355-3.447l-5.649.463 1.241-1.927-5.704-5.225 1.733-.524-1.004-3.793 3.648.759.692-1.881 2.128 2.333-.617-6.035 2.239 1.792 2.404-4.541 2.404 4.541 2.236-1.792-.615 6.036 2.129-2.336.689 1.883 3.651-.759-1.004 3.793 1.731.524-5.703 5.225 1.24 1.927-5.656-.464c-.141.511-.453 1.849-.347 3.44.076 1.145.625 1.505 1.068 1.795l.935.641h-5.515"/><path d="M471.688 191.832c-.04 0-3.755.156-5.624-.581-3.725-1.471-6.617-1.519-8.513-.199-.36.251-.697.533-.983.884a4.85 4.85 0 0 0-.721-.712l-.047-.036c-.073-.057-.16-.096-.237-.149-1.896-1.304-4.777-1.253-8.492.212-1.872.736-5.587.584-5.64.581l-2.897.009v20.071l.297.003 2.581.013 3.884-.084c.692-.08 1.739-.471 2.952-.924 2.371-.884 5.484-2.039 7.315-1.324.299.116.571.269.792.495l.213.217.212-.217c.063-.063.148-.092.216-.147l.152-.103c.128-.084.248-.179.393-.237 1.827-.737 4.961.428 7.344 1.316 1.213.453 2.26.844 2.951.924 1.095.125 6.248.073 6.468.071l.296-.003v-20.071l-2.912-.009"/></g><g fill="#76133a"><path d="M456.568 191.939a4.85 4.85 0 0 0-.721-.712l-.047-.036c-.073-.057-.16-.096-.237-.148v18.556h0c.299.116.571.271.792.496l.213.217.212-.217c.063-.063.148-.093.216-.147l.152-.104c.128-.084.248-.179.393-.237l.009-18.551a4.74 4.74 0 0 0-.983.883m-35.755 101.304s-.908.404-1.035 1.205c0 0-1.763-1.255-2.98.728 0 0 .335-3.185 4.015-1.933m-4.301 8.083s-.416.879.389 2.183c0 0-2.231.804-.753 3.562 0 0-3.239-3.011.364-5.745m4.533 9.621s-.069.963 1.157 1.909c0 0-1.795 1.512.593 3.589 0 0-4.125-1.71-1.751-5.498m52.901-6.638c-.596.236-1.107.805-.875 2.362 0 0-2.196-2.2.816-3.888l.323-.163s-.335.909.169 1.56c0 0-.188.029-.433.129m18.037-11.066s.908.404 1.037 1.205c0 0 1.763-1.255 2.981.728 0 0-.337-3.185-4.019-1.933m4.305 8.083s.415.879-.389 2.183c0 0 2.231.804.752 3.562 0 0 3.239-3.011-.363-5.745m-4.533 9.621s.069.963-1.156 1.909c0 0 1.792 1.512-.596 3.589 0 0 4.131-1.71 1.752-5.498m-39.082-6.966c-2.56 1.612-6.877.263-6.877.263s.108 1.155-3.769 2.733c-5.813 2.365-11.92 8.329-3.941 17.008 0 0-3.309-9.881 1.819-12.191 0 0 4.448 4.21 10.876-4.143 1.301-1.696 1.893-3.671 1.893-3.671m-14.439-34.844c-.199 2.575-.585 2.68-3.019 3.833 0 0-.941-.867-1.419-1.757-1.503-2.796 1.009-6.915 1.009-6.915-2.729 3.266-6.693 2.168-6.693 2.168.293-2.788 4.144-5.318 4.144-5.318-3.548.635-6.348-1.257-6.348-1.257.992-1.804 4.727-4.096 4.727-4.096-3.608-.228-6.139-2.412-6.139-2.412 1.084-1.486 5.135-3.439 5.135-3.439-1.936-1.119-3.84-4.38-3.84-4.38 2.749-1.435 5.936-1.116 5.936-1.116-5.112-3.618.411-13.485.411-13.485-.781 14.896 11.077 11.018 10.152 18.6-.76 6.24-7.764 1.658-7.764 1.658-1.22 8.688 3.915 9.508 3.915 9.508s-.248 2.096-.328 4.297c-.101 2.685.216 2.871.121 4.109m-15.613 21.663c16.317-.388 19.244-12.372 19.244-12.372-1.556-2.22-1.833-3.376-1.833-3.376l-.256-.655c-1.095 1.144-5.2 2.628-5.2 2.628s-2.367-1.994-2.957-2.816c-1.591-2.207-1.839-3.821-1.839-3.821-2.767.067-5.3-2.269-5.3-2.269-.156-2.457.887-4.511.887-4.511-1.969-.874-4.003-2.828-4.003-2.828 1.325-2.709 2.189-3.591 2.189-3.591-3.145-2.357-3.26-3.802-3.26-3.802.78-2.045 3.647-4.057 3.647-4.057-1.232-1.597-2.397-4.72-2.397-4.72 2.269-2.202 4.455-2.86 4.455-2.86-.347-1.245-.267-2.437-.177-3.748 0 0-18.72-9.444-20.792-15.562 0 0-.869 5.422-.517 8.929.309 3.111 5.299 8.2 17.353 16.008-7.401-1.097-17.528-4.942-19.74-8.783 0 0-.035 5.564 1.243 8.864 1.039 2.675 6.279 4.588 18.081 10.197-5.823 3.105-16.153-.338-19.113-3.227 0 0 1.64 4.857 3.572 7.842 1.224 1.881 6.119 5.041 17.491 3.408-4.221 5.085-12.32 8.919-17.813 6.511 0 0 .564 4.83 3.9 6.242 2.469 1.042 7.671 1.706 15.961-4.516-5.001 11.991-17.205 8.328-17.205 8.328s2.885 4.777 6.097 6.432c2.849 1.467 8.725.291 18.257-9.744 0 0-.595 8.882-9.973 11.868m21.083-9.024c.463.639 3.239 4.512 4.155 7.155 0 0-6.351 5.307-5.215 11.124 0 0-2.127-4.217-.676-7.428.139-.306.819-2.075.819-2.075s-5.497 2.539-9.127.632c0 0 3.907.445 8.235-6.18 1.503-2.3 1.789-3.005 1.808-3.217l.001-.011m25.388 0c-.464.639-3.239 4.512-4.155 7.155 0 0 6.351 5.307 5.215 11.124 0 0 2.125-4.217.676-7.428-.139-.306-.819-2.075-.819-2.075s5.497 2.539 9.127.632c0 0-3.907.445-8.235-6.18-1.503-2.3-1.789-3.005-1.808-3.217l-.001-.011m-44.46 30.735c-.631 0-1.199-.204-1.601-.573-.853-.78-1.256-1.64-1.192-2.556.121-1.86 2.163-3.282 3.033-3.888l.225-.16c1.011-.746 2.113-1.801 1.635-2.596-.128-.212-.476-.381-.928-.455-.168-.028-.349-.043-.544-.043-1.04 0-2.131.395-2.916 1.057-.591.497-1.353.772-2.147.772a3 3 0 0 1-1.711-.511c-.971-.668-1.293-1.797-.863-3.024.404-1.152 1.353-1.736 2.82-1.736.56 0 1.096.081 1.488.143l.577.068.665.016c.196 0 .241-.031.317-.151-.091-.255-.536-.631-.912-.773-.801-.3-1.716-1.022-1.949-1.953-.109-.442-.113-1.111.488-1.794.443-.5 1.039-.774 1.684-.774a2.3 2.3 0 0 1 .799.144c.991.365 1.643 1.31 1.661 2.408.009.675.383 2.156 1.203 2.527a2.39 2.39 0 0 0 .995.209c2.792 0 6.135-4.247 6.167-4.289l.267-.346.409.146c.015.006 1.301.457 3.029.457a9.57 9.57 0 0 0 1.075-.061l.967-.117-.336.915c-.043.119-1.105 2.908-6.256 5.291-.381.177-.471.334-.472.364.001.024.063.125.245.213a3.23 3.23 0 0 0 .607.06c.265 0 .493-.041.676-.128.441-.212 1.108-.492 1.781-.492a2.02 2.02 0 0 1 .873.186c.56.266.943.794 1.135 1.572a2.2 2.2 0 0 1-.871 2.367 2.53 2.53 0 0 1-1.493.479 2.77 2.77 0 0 1-1.499-.448c-.016-.008-.621-.452-.875-.659-.201-.164-.523-.249-.928-.249-.636 0-1.268.197-1.54.315-.899.395-1.627 1.845-2.048 4.082-.369 1.967-1.387 3.36-2.788 3.828-.312.104-.633.159-.953.159m13.928-8.058c.596.237 1.108.807.875 2.363 0 0 2.195-2.199-.817-3.885l-.323-.166s.335.908-.167 1.559c0 0 .184.031.432.129m21.571-.47c2.559 1.612 6.875.263 6.875.263s-.109 1.155 3.769 2.733c5.813 2.365 11.92 8.329 3.939 17.008 0 0 3.313-9.881-1.82-12.191 0 0-4.447 4.21-10.873-4.143-1.303-1.696-1.889-3.671-1.889-3.671m14.433-34.844c.199 2.575.585 2.68 3.019 3.833 0 0 .937-.867 1.419-1.757 1.5-2.796-1.009-6.915-1.009-6.915 2.729 3.266 6.696 2.168 6.696 2.168-.296-2.788-4.145-5.318-4.145-5.318 3.549.635 6.343-1.257 6.343-1.257-.989-1.804-4.727-4.096-4.727-4.096 3.612-.228 6.143-2.412 6.143-2.412-1.085-1.486-5.14-3.439-5.14-3.439 1.941-1.119 3.845-4.38 3.845-4.38-2.752-1.435-5.939-1.116-5.939-1.116 5.116-3.618-.408-13.485-.408-13.485.781 14.896-11.077 11.018-10.151 18.6.759 6.24 7.763 1.658 7.763 1.658 1.22 8.688-3.915 9.508-3.915 9.508a60.22 60.22 0 0 0 .328 4.297c.101 2.685-.217 2.871-.121 4.109m15.612 21.663c-16.317-.388-19.24-12.372-19.24-12.372 1.555-2.22 1.829-3.376 1.829-3.376l.257-.655c1.093 1.144 5.199 2.628 5.199 2.628s2.365-1.994 2.957-2.816c1.591-2.207 1.839-3.821 1.839-3.821 2.767.067 5.3-2.269 5.3-2.269.157-2.457-.888-4.511-.888-4.511 1.971-.874 4.001-2.828 4.001-2.828-1.32-2.709-2.187-3.591-2.187-3.591 3.145-2.357 3.26-3.802 3.26-3.802-.78-2.045-3.647-4.057-3.647-4.057 1.232-1.597 2.392-4.72 2.392-4.72-2.264-2.202-4.455-2.86-4.455-2.86.352-1.245.272-2.437.183-3.748 0 0 18.719-9.444 20.793-15.562 0 0 .868 5.422.519 8.929-.312 3.111-5.301 8.2-17.356 16.008 7.397-1.097 17.529-4.942 19.737-8.783 0 0 .037 5.564-1.241 8.864-1.037 2.675-6.277 4.588-18.081 10.197 5.825 3.105 16.155-.338 19.113-3.227 0 0-1.636 4.857-3.573 7.842-1.221 1.881-6.116 5.041-17.488 3.408 4.22 5.085 12.319 8.919 17.813 6.511 0 0-.568 4.83-3.9 6.242-2.467 1.042-7.669 1.706-15.961-4.516 5.001 11.991 17.205 8.328 17.205 8.328s-2.885 4.777-6.097 6.432c-2.851 1.467-8.725.291-18.259-9.744 0 0 .596 8.882 9.975 11.868m-2.011 21.711c-.32 0-.64-.053-.953-.157-1.403-.467-2.42-1.862-2.789-3.829-.417-2.235-1.145-3.685-2.053-4.084-.348-.151-.979-.315-1.531-.315-.409 0-.731.088-.935.252l-.843.639a2.82 2.82 0 0 1-1.533.466 2.52 2.52 0 0 1-1.484-.473c-.768-.549-1.103-1.459-.879-2.369.196-.779.577-1.308 1.137-1.573.26-.123.552-.185.868-.185.679 0 1.347.28 1.791.492.179.084.403.127.663.127a2.74 2.74 0 0 0 .707-.095c.092-.051.153-.151.155-.179s-.093-.189-.469-.362c-5.151-2.383-6.215-5.172-6.257-5.291l-.335-.915.967.117a9.01 9.01 0 0 0 1.057.06 10.42 10.42 0 0 0 3.047-.456l.408-.146.265.344c.033.044 3.377 4.291 6.171 4.291.353-.002.688-.071.995-.209.827-.372 1.189-1.829 1.2-2.527.017-1.096.668-2.04 1.659-2.407a2.27 2.27 0 0 1 .799-.146c.644 0 1.241.275 1.685.774.636.721.579 1.432.489 1.792-.245.993-1.205 1.675-1.952 1.958-.373.143-.82.517-.9.757.068.139.123.164.311.164l.576-.019c.244 0 .448-.033.665-.067.405-.061.94-.141 1.489-.141 1.465 0 2.413.585 2.816 1.736.431 1.227.107 2.357-.863 3.025-.484.332-1.076.509-1.708.509a3.32 3.32 0 0 1-2.145-.773c-.785-.661-1.877-1.056-2.917-1.056-.193 0-.377.015-.545.043-.453.073-.799.243-.928.455-.483.792.62 1.848 1.632 2.595l.217.155c.875.609 2.92 2.032 3.044 3.893.063.915-.339 1.774-1.193 2.557-.403.369-.971.573-1.599.573m-31.779-3.569c.491-.237.993-.327 1.605-.922 0 0 4.184 9.567 13.613 8.575 0 0-.548 2.039-4.283 2.267 0 0 6.384 2.867 2.719 5.759-2.407 1.896-4.305-3.421-4.305-3.421s-.285 4.875-4.628 4.916c0 0 6.456-3.657-.287-12.224.651 6.009-1.509 11.603-4.425 11.603s-5.075-5.594-4.424-11.603c-6.741 8.567-.288 12.224-.288 12.224-4.343-.042-4.625-4.916-4.625-4.916s-1.901 5.317-4.307 3.421c-3.672-2.892 2.717-5.759 2.717-5.759-3.733-.228-4.28-2.267-4.28-2.267 9.428.992 13.609-8.575 13.609-8.575.616.596 1.1.685 1.588.922m-1.165-79.552l-.857.085c.128.179.204.396.204.624 0 .605-.507 1.097-1.133 1.097s-1.133-.492-1.133-1.097l.157-.515-2.707.145 5.051-1.902.263-.101.069.264.3 1.1.075.27zm5.832 3.424c.26-4.02 3.848-3.651 4.121-6.02.38-3.304-3.732-2.597-3.732-2.597s1.743.016 2.06.828c.74 1.881-2.604 2.106-2.604 2.106-4.081 1.024-5.479-1.316-6.956-1.58s-1.749.677-2.061 1.016-6.599.696-7.909 2.034c-1.503 1.533-1.341 3.341-.308 4.483 0 0 .575-2.147 2.957-2.227 2.301-.082 6.331 2.912 7.221 4.662-1.008.043-10.007.596-11.171-.235-.739-.527-1.579-1.606-1.539-2.32 0 0-.483 2.234.604 2.949s1.411.592 2.071.628c.624.038 9.312-.215 10.245-.222-.212.632-.013 2.265-1.919 2.417l-7.159.003s-.212 1.743 2.584.981c.584-.158 2.464-.645 3.029.332.377.651 1.656 2.824-2.561 3.429 0 0 6.177.393 6.665-4.739 0 0 .484 3.855 1.701 3.869 1.385-.015 1.383-4.021 1.383-4.021 2.128 5.487 7.475 5.835 7.475 5.835-4.496-2.988-4.237-11.012-4.199-11.613m5.572 34.344a3.49 3.49 0 0 1-.419.759c-1.175 1.628-3.084 1.844-4.453 1.34-.775-.286-1.083-.489-1.373-.703l-.081-.058-.48-.335v4.366l.537-.423.687.908.057.079c.224.284.425.579.725 1.332.521 1.326.299 3.173-1.383 4.31-.247.168-.511.303-.785.407-.3.883-.847 1.849-2.613 2.704l-.492.238-.489-.238c-1.787-.864-2.328-1.842-2.616-2.704-.275-.104-.537-.239-.784-.407a3.56 3.56 0 0 1-1.384-4.31c.299-.754.507-1.048.727-1.332l.061-.079.684-.921.536.43v-4.384l-.513.36-.084.058c-.291.213-.595.416-1.375.703-1.369.504-3.275.288-4.451-1.34a3.64 3.64 0 0 1-.421-.761c-.912-.287-1.908-.817-2.791-2.529l-.247-.475.247-.476c.892-1.728 1.901-2.253 2.791-2.531.109-.268.249-.52.421-.76 1.176-1.627 3.081-1.844 4.451-1.337.535.196.848.351 1.084.5l-.332-.447-.061-.079c-.22-.283-.428-.579-.727-1.332a3.56 3.56 0 0 1 1.384-4.31 3.79 3.79 0 0 1 .785-.407c.297-.883.845-1.849 2.615-2.703l.489-.239.492.239c1.785.864 2.327 1.84 2.615 2.703.275.104.537.24.784.407 1.681 1.14 1.904 2.986 1.383 4.31-.3.754-.501 1.049-.725 1.332l-.057.079-.304.407c.229-.136.528-.281 1.015-.46 1.369-.507 3.279-.29 4.453 1.337.172.24.315.493.419.761.913.286 1.909.819 2.795 2.529l.244.476-.244.475c-.895 1.729-1.903 2.251-2.795 2.532zm-2.145-19.4c-1.544-.107-4.724-.845-5.783-2.18 0 0-.729 1.092-2.293 1.544-1.573-.423-2.183-1.513-2.183-1.513-1.275 1.336-4.144 2.043-5.851 2.201-3.724 9.472-11.86 15.253-4.385 28.104 7.793 13.398 13.436 15.225 2.549 24.405 0 0 6.961 1.876 8.567-3.954 0 0-.321 6.332 1.296 8.026 1.621-1.693 1.283-8.114 1.283-8.114 1.607 5.83 8.564 3.952 8.564 3.952-10.883-9.18-5.24-11.007 2.555-24.405 7.472-12.848-.592-18.595-4.319-28.067"/><path d="M466.749 264.032c-.011-.015-.988-1.32-2.384-.994a1.36 1.36 0 0 0-.133-1.439c-.563-.779-1.404-.707-1.769-.561l-.221.092.147.183c.003.001.171.212.199.508.028.284-.003.707-.54 1.102-.269.198-.988.228-1.248.222h-3.203v-4.661c-.005-.246.024-.945.229-1.204.408-.521.847-.548 1.141-.523.301.027.52.19.521.19l.189.149.093-.22c.153-.353.225-1.168-.577-1.712-.544-.368-1.084-.307-1.488-.132.34-1.349-1.011-2.297-1.024-2.307l-.051-.032h-.059-.057l-.047.032c-.02.009-1.367.957-1.028 2.307-.403-.175-.943-.236-1.485.132-.807.544-.732 1.359-.58 1.712l.093.217.189-.145a1.12 1.12 0 0 1 .524-.191c.293-.025.731.002 1.14.523.199.249.229.9.223 1.158l-.004.012v.03 4.665h-3.353c-.255.005-.975-.024-1.243-.222-.54-.395-.568-.818-.541-1.102.029-.296.196-.507.196-.507l.153-.184-.224-.092c-.365-.145-1.207-.217-1.769.561a1.36 1.36 0 0 0-.136 1.439c-1.393-.327-2.372.979-2.381.994l-.035.049v.057.055l.035.049c.009.015.988 1.32 2.381.993a1.36 1.36 0 0 0 .136 1.439c.563.777 1.404.707 1.769.561l.221-.091-.147-.184c-.004-.001-.171-.213-.2-.506-.027-.284.001-.708.541-1.106.259-.189.929-.22 1.197-.217l.012.004h.031 3.356v8.434l.004.036v.003c.007.258-.024.906-.223 1.158-.409.521-.847.548-1.14.523-.304-.025-.523-.19-.523-.19l-.191-.149-.093.219c-.152.356-.227 1.169.58 1.716.543.365 1.083.304 1.485.129-.339 1.349 1.008 2.297 1.028 2.307l.048.032h.059.057l.049-.032c.013-.009 1.364-.957 1.024-2.307a1.5 1.5 0 0 0 1.488-.129c.803-.547.731-1.36.577-1.716l-.092-.216-.191.146c-.001 0-.22.164-.521.19-.295.025-.733-.002-1.144-.523-.203-.258-.232-.957-.227-1.208v-8.424h3.209l.044-.003v-.001c.268-.003.937.028 1.197.217.537.396.568.821.54 1.106-.028.293-.196.505-.196.505l-.153.185.225.091c.365.145 1.207.216 1.769-.561a1.36 1.36 0 0 0 .133-1.439c1.396.327 2.373-.979 2.384-.993l.035-.051v-.056-.055l-.035-.048"/></g><path d="M852.335 288.203a132.77 132.77 0 0 1-10.528-.42c-71.734-5.715-125.446-68.724-119.733-140.46 2.767-34.749 18.901-66.343 45.431-88.956s60.267-33.547 95.028-30.779c28.264 2.252 54.435 13.304 75.684 31.961 4.376 3.843 4.809 10.505.967 14.881s-10.505 4.809-14.881.967c-17.807-15.636-39.745-24.899-63.444-26.785-29.132-2.323-57.429 6.843-79.672 25.803s-35.769 45.448-38.089 74.582c-4.791 60.144 40.243 112.972 100.385 117.762 13.315 1.061 26.508-.273 39.209-3.964 5.592-1.625 11.443 1.591 13.068 7.183a10.55 10.55 0 0 1-7.183 13.069c-11.803 3.43-23.952 5.155-36.241 5.155" fill="#f9b83e"/><path d="M815.305 236.388l-12.443-58.064h13.52l5.724 29.281.291 1.637.207 1.929.249-1.929.332-1.72 6.884-29.199h11.529l6.968 29.156c.137.499.248 1.079.332 1.743l.248 2.115.312-1.908.269-1.493 5.723-29.612h13.52l-12.524 58.064h-12.443l-7.88-31.604a10.06 10.06 0 0 1-.207-1.119l-.208-1.784-.228 1.804-.187 1.016-7.548 31.686h-12.441m72.578-11.031c2.296 0 4.057-.879 5.288-2.633s1.847-4.252 1.847-7.487-.629-5.744-1.888-7.528-3.007-2.675-5.247-2.675-4.001.912-5.287 2.737-1.929 4.313-1.929 7.465.644 5.626 1.929 7.424 3.048 2.696 5.287 2.696zm0 12.027c-6.083 0-10.879-1.969-14.391-5.909s-5.267-9.353-5.267-16.237c0-4.535.801-8.467 2.405-11.799s3.877-5.904 6.821-7.715 6.423-2.716 10.431-2.716c3.981 0 7.431.905 10.348 2.716s5.171 4.376 6.76 7.693 2.385 7.257 2.385 11.82c0 4.59-.781 8.537-2.344 11.841s-3.801 5.846-6.717 7.631-6.395 2.674-10.432 2.674m26.045-.994v-42.386h12.441v3.899c.636-1.299 1.769-2.44 3.401-3.421s3.207-1.472 4.728-1.472c3.289 0 6.056 1.244 8.295 3.732l-1.659 11.281c-1.272-1.133-2.483-1.929-3.629-2.385s-2.427-.684-3.836-.684c-1.576 0-2.903.332-3.981.995s-1.901 1.645-2.468 2.945-.851 2.889-.851 4.769v22.728h-12.441m34.384-.001v-54.33l12.441-5.557v59.888H948.31m38.396-11.033c1.631 0 2.917-.187 3.857-.56s1.756-.987 2.447-1.845v-15.262c-.691-.829-1.604-1.479-2.737-1.949a9.22 9.22 0 0 0-3.567-.705c-2.267 0-4.023.864-5.267 2.592s-1.867 4.237-1.867 7.528c0 2.295.263 4.196.788 5.703s1.313 2.633 2.364 3.38 2.377 1.12 3.981 1.12zm-2.156 12.027c-5.503 0-9.781-1.941-12.837-5.827s-4.583-9.352-4.583-16.403c0-4.341.747-8.177 2.24-11.509s3.56-5.937 6.2-7.817 5.689-2.82 9.145-2.82c3.539 0 6.304 1.409 8.295 4.231v-15.18l12.443-5.557v59.888H993.01v-3.567c-1.521 3.041-4.341 4.561-8.46 4.561m-168.508-90.985h16.591c1.576 0 2.82-.291 3.732-.872s1.555-1.285 1.929-2.115.559-1.632.559-2.405a6.69 6.69 0 0 0-.643-2.841c-.429-.927-1.251-1.693-2.467-2.301s-3.001-.913-5.351-.913h-14.351zm0-23.227h13.687c2.489 0 4.299-.461 5.433-1.388s1.701-2.179 1.701-3.755a7 7 0 0 0-.416-2.364c-.276-.773-.829-1.416-1.659-1.928s-2.073-.768-3.732-.768h-15.015zm-13.105 35.585v-58.064h28.037c4.809 0 8.619.768 11.425 2.303s4.811 3.504 6.013 5.909 1.804 4.921 1.804 7.548c0 2.572-.449 4.936-1.348 7.093s-2.577 3.801-5.039 4.935c2.017.775 3.635 1.881 4.852 3.317s2.095 3.008 2.633 4.708.809 3.312.809 4.832c0 2.101-.36 4.188-1.079 6.261s-1.859 3.948-3.421 5.62-3.623 3.015-6.179 4.023-5.689 1.515-9.395 1.515h-29.115m55.364 0V116.37h12.443v3.899c.635-1.299 1.769-2.44 3.401-3.421s3.207-1.472 4.728-1.472c3.289 0 6.055 1.244 8.295 3.732l-1.66 11.281c-1.272-1.133-2.481-1.929-3.629-2.385s-2.425-.684-3.835-.684c-1.577 0-2.904.332-3.983.995s-1.901 1.645-2.468 2.945-.849 2.889-.849 4.769v22.728h-12.443m34.594-.001V116.37h12.443v42.387zm6.221-46.119c-1.936 0-3.608-.705-5.019-2.116s-2.116-3.081-2.116-5.017c0-1.908.692-3.547 2.075-4.915s3.069-2.053 5.06-2.053c2.045 0 3.745.671 5.101 2.011s2.032 2.993 2.032 4.957c0 1.991-.692 3.677-2.073 5.06s-3.069 2.073-5.06 2.073m32.091 35.088c1.216 0 2.323-.193 3.317-.581s1.908-.967 2.739-1.741V129.89c-.664-.747-1.515-1.347-2.552-1.803a8 8 0 0 0-3.255-.685c-2.489 0-4.383.857-5.683 2.572s-1.949 4.229-1.949 7.548c0 2.239.276 4.113.829 5.62s1.376 2.648 2.468 3.421 2.453 1.161 4.085 1.161zm-5.273 29.093l-6.685-10.809.985-.067 2.264-.219c4.231-.332 7.403-.745 9.519-1.244s3.517-1.196 4.209-2.093 1.037-2.136 1.037-3.712v-1.328c-1.881 1.603-4.508 2.405-7.881 2.405-3.815 0-7.064-.871-9.745-2.612s-4.728-4.272-6.139-7.591-2.115-7.325-2.115-12.027c0-4.451.747-8.336 2.239-11.655s3.588-5.896 6.284-7.735 5.855-2.757 9.476-2.757c1.715 0 3.241.221 4.584.663s2.44 1.107 3.297 1.991v-1.659h12.441v36.829c0 4.229-.312 7.756-.933 10.575s-1.68 5.095-3.172 6.823-3.533 3.035-6.119 3.92-5.841 1.52-9.767 1.908l-2.813.311-.967.083m31.808-18.062v-54.165l12.443-5.723v21.4c1.383-1.631 3.041-2.855 4.977-3.671s4.147-1.223 6.635-1.223c2.987 0 5.572.629 7.756 1.887s3.871 3.055 5.06 5.392 1.783 5.108 1.783 8.315v27.788H983.95v-21.649c0-3.567-.491-6.076-1.472-7.528s-2.675-2.177-5.081-2.177c-2.516 0-4.348.761-5.495 2.281s-1.721 3.94-1.721 7.259v21.815h-12.443m60.429.994c-3.679 0-6.408-.968-8.192-2.903s-2.675-4.865-2.675-8.792v-20.737h-5.723V116.37h5.723v-11.613l12.36-5.888v17.501h9.04v10.949h-9.04v19.244c0 .829.213 1.465.643 1.908s1.084.663 1.969.663c2.129 0 4.465-.552 7.009-1.659l-1.409 10.369c-1.328.608-2.787 1.077-4.376 1.409s-3.367.497-5.329.497m26.285-27.288h15.263c-.223-1.464-.651-2.681-1.287-3.649s-1.479-1.693-2.529-2.177-2.323-.725-3.816-.725c-2.019 0-3.719.58-5.101 1.741s-2.225 2.765-2.529 4.811zm7.963 27.289c-4.203 0-7.817-.885-10.845-2.655s-5.351-4.312-6.968-7.631-2.425-7.299-2.425-11.944c0-4.507.821-8.42 2.468-11.737s3.98-5.883 7.008-7.693 6.615-2.716 10.763-2.716c3.593 0 6.836.725 9.725 2.177s5.184 3.664 6.885 6.636 2.549 6.725 2.549 11.26l-.04 2.881a28.41 28.41 0 0 1-.291 3.423h-26.959c0 1.52.332 2.84.996 3.96s1.603 1.984 2.82 2.592 2.655.913 4.313.913c2.157 0 3.96-.345 5.412-1.037s2.855-1.839 4.211-3.443l7.133 7.133c-1.992 2.405-4.355 4.321-7.092 5.744s-5.959 2.136-9.664 2.136m25.71-.994V116.37h12.443v3.899c.635-1.299 1.768-2.44 3.4-3.421s3.208-1.472 4.728-1.472c3.291 0 6.056 1.244 8.295 3.732l-1.659 11.281c-1.272-1.133-2.481-1.929-3.629-2.385s-2.425-.684-3.836-.684c-1.576 0-2.903.332-3.981.995s-1.901 1.645-2.468 2.945-.849 2.889-.849 4.769v22.728h-12.443M629.876 347.871h-3.313V.005h3.313v347.866" fill="#fff"/></svg>