<svg xmlns="http://www.w3.org/2000/svg" width="235.027" height="56.933" xmlns:v="https://vecta.io/nano"><style><![CDATA[.B{fill:#fab93f}.C{fill:#740232}.D{fill:#46505c}]]></style><defs><clipPath id="A"><path d="M0 404.926h756.414V5.48H0z"/></clipPath></defs><g transform="matrix(.133333 0 0 -.133333 0 56.933333)"><g clip-path="url(#A)" class="D"><path d="M144.367 281.469c-1.422 1.347-3.808 1.301-5.387 1.269l-.578-.008c-2.398 0-4.672.168-6.175 2.184-1.817 2.375-1.789 9.84-1.782 13.024l.004.726v82.813c0 .687-.027 1.523-.051 2.41-.109 3.554-.285 9.515 1.293 11.57.981 1.352 3.598 1.25 5.704 1.164l1.375-.035c5.175 0 5.734 3.23 5.734 4.621 0 1.227-.371 2.176-1.098 2.82-1.222 1.086-3.008.938-4.445.817-.41-.035-.797-.067-1.113-.067h-20.586c-2.129 0-4.782 0-6.211-3.539l-36.836-91.937-32.484 88.504c-.16.488-.301.972-.441 1.437-.809 2.723-1.645 5.535-5.598 5.535h-21.45c-.324 0-.707.032-1.117.067-1.437.121-3.227.269-4.449-.817-.727-.644-1.094-1.593-1.094-2.82 0-1.391.559-4.621 5.734-4.621 4.176 0 6.805-.223 7.879-1.336 1.152-1.195 1.184-3.895.813-9.137l-5.734-89.039c-.582-10.656-1.238-14.344-10.172-14.344C.79 282.73 0 280.297 0 278.84c0-1.684.738-3.688 4.25-3.688 2.703 0 5.484.172 8.176.336 2.719.168 5.527.34 8.289.34 2.73 0 5.531-.168 8.238-.336 2.746-.168 5.59-.34 8.402-.34 1.605 0 5.363 0 5.363 3.688 0 .996-.355 1.863-1.023 2.504-1.469 1.414-3.988 1.398-5.656 1.386h-.348c-3.687 0-6.332.872-8.082 2.661-3.457 3.547-3.344 10.492-2.832 19.199l5.156 79.43 35.387-99.325.043-.164c.418-1.644 1.191-4.711 3.984-4.711 2.371 0 3.215 2.379 3.777 3.95l.211.578 39.848 101.879v-87.563l.004-1.09c.027-3.504.078-10.023-2.379-12.285-1.743-1.601-5.336-2.559-7.801-2.559l-.574.008c-1.582.032-3.969.078-5.391-1.269-.707-.664-1.062-1.551-1.062-2.629 0-1.684.836-3.688 4.808-3.688 3.609 0 7.328.172 10.922.336 3.641.168 7.41.34 11.125.34 2.937 0 5.937-.168 8.836-.336 2.926-.168 5.953-.34 8.945-.34 3.977 0 4.813 2.004 4.813 3.688 0 1.078-.36 1.965-1.063 2.629m78.833 61.617c-3.164 0-5.297 3.652-7.996 8.273-3.836 6.567-8.609 14.739-17.555 14.739-6.726 0-14.296-4.137-18.816-8.239-8.535-7.957-13.637-20.293-13.637-32.98 0-20.121 13.453-41.844 35.184-41.844 8.504 0 15.934 3.043 21.484 8.805l.36.414c1.156 1.367 2.218 2.496 3.511 2.496 1.469 0 2.661-1.312 2.661-2.926 0-1.156-.649-3.285-6.254-8.437-8.043-6.985-18.125-10.664-29.172-10.664-24.313 0-44.848 21.968-44.848 47.972 0 28.012 23.754 51.672 51.867 51.672 7.254 0 18.106-2.238 24.778-7.156 2.566-1.91 2.336-5.52 2.152-8.422-.043-.648-.082-1.266-.082-1.781 0-.207.027-.617.055-1.086.238-3.813.343-8.035-1.473-9.899-.594-.617-1.359-.937-2.219-.937m153.449-61.617c-1.421 1.347-3.808 1.301-5.386 1.269l-.578-.008c-2.399 0-4.672.168-6.176 2.184-1.817 2.375-1.789 9.84-1.781 13.024l.003.726v82.813c0 .687-.027 1.523-.05 2.41-.106 3.554-.282 9.515 1.293 11.57.98 1.352 3.601 1.25 5.703 1.164l1.379-.035c5.172 0 5.73 3.23 5.73 4.621 0 1.227-.367 2.176-1.097 2.82-1.219 1.086-3.008.938-4.446.817-.41-.035-.797-.067-1.113-.067h-20.582c-2.133 0-4.781 0-6.215-3.539l-36.84-91.937-32.476 88.504c-.164.488-.305.972-.446 1.437-.804 2.723-1.64 5.535-5.597 5.535H246.52c-.317 0-.704.032-1.114.067-1.437.121-3.226.269-4.449-.817-.727-.644-1.094-1.593-1.094-2.82 0-1.391.559-4.621 5.735-4.621 4.175 0 6.804-.223 7.879-1.336 1.156-1.195 1.183-3.895.816-9.137l-5.734-89.039c-.582-10.656-1.243-14.344-10.176-14.344-5.309 0-6.102-2.433-6.102-3.89 0-1.684.739-3.688 4.25-3.688 2.703 0 5.485.172 8.176.336 2.719.168 5.527.34 8.285.34 2.735 0 5.535-.168 8.242-.336 2.746-.168 5.586-.34 8.403-.34 1.605 0 5.363 0 5.363 3.688 0 .996-.352 1.863-1.023 2.504-1.469 1.414-3.989 1.398-5.657 1.386h-.347c-3.688 0-6.332.872-8.082 2.661-3.457 3.547-3.34 10.492-2.832 19.199l5.156 79.43 35.387-99.325.043-.164c.418-1.644 1.195-4.711 3.988-4.711 2.367 0 3.215 2.379 3.773 3.95l.211.578 39.848 101.879v-87.563l.004-1.094c.027-3.5.082-10.019-2.375-12.281-1.746-1.601-5.34-2.559-7.805-2.559l-.578.008c-1.578.032-3.965.078-5.387-1.269-.707-.664-1.058-1.551-1.058-2.629 0-1.684.832-3.688 4.804-3.688 3.614 0 7.325.172 10.922.336 3.641.168 7.414.34 11.125.34 2.938 0 5.938-.168 8.836-.336 2.93-.168 5.953-.34 8.949-.34 3.973 0 4.809 2.004 4.809 3.688 0 1.078-.359 1.965-1.063 2.629"/></g><g class="D"><path d="M428.777 328.387c6.575 3.304 6.575 3.304 6.575 10.605v9.211c0 10.942-.762 17.586-11.286 17.586-10.148 0-16.351-4.867-21.406-16.805l-.418-.968c-1.195-2.797-2.433-5.696-5.644-7.215-1.993-1.082-6.239-2.852-8.875-2.852-2.563 0-3.805 1.231-3.805 3.766 0 5.902 4.59 12.187 8.52 15.769 9.496 9.153 23.281 14.852 35.949 14.852 8.492 0 14.785-1.981 18.718-5.887 4.465-3.992 4.372-9.101 4.286-14.047l-.028-2.105v-49.402-.364c0-3.363-.011-11.238 2.938-14.09.715-.695 1.566-1.035 2.597-1.035 2.489 0 4.204 1.766 5.575 3.18 1.066 1.102 1.984 2.051 3.203 2.051 1.472 0 2.664-1.313 2.664-2.926 0-2.746-3.199-5.66-4.914-7.227l-.176-.16c-4.023-3.015-9.23-6.383-14.734-6.383-7.082 0-9.914 6.797-11.789 11.301-.543 1.301-1.282 3.082-1.7 3.367l.243-.058.289.047c-.348-.153-1.536-1.18-2.579-2.086-5.167-4.485-15.921-13.817-29.355-13.817-9.461 0-19.516 6.215-19.516 17.739 0 15.035 16.996 23.886 28.239 29.738l1.277.664zm-12.918-13.926c-7.621-4.164-14.671-9.297-14.671-18.586 0-8.191 6.605-11.098 12.265-11.098 6.164 0 12.637 2.977 17.32 7.961 4.391 4.875 4.579 8.078 4.579 14.86v12.558c0 .145.011.34.027.606.176 3.179-.172 3.914-.332 4.086l.223-.086.039.004c-.168-.028-.653-.262-.911-.387-.293-.145-.574-.281-.847-.375l.183.082-17.875-9.625m58.868-12.492l.031.301c.199 1.761.605 5.425 3.789 5.425 3.465 0 4.262-4.039 5.183-8.715 1.668-8.449 3.954-20.019 20.458-20.019 10.941 0 22.578 6.766 22.578 19.305 0 11.578-9.258 15.859-17.938 18.961l-1.765.601c-12.25 4.195-29.032 9.938-29.032 27.004 0 7.93 3.762 15.012 10.867 20.484 6.293 4.75 14.11 7.051 23.899 7.051 5.09 0 15.656-1.375 20.637-3.531 3.453-1.758 3.195-5.57 2.992-8.637-.051-.699-.098-1.355-.098-1.945 0-.141.035-.535.07-.953.317-3.738.508-7.871-1.218-9.684a2.82 2.82 0 0 0-2.082-.894c-2.45 0-3.461 2.5-4.746 5.66-2.399 5.933-5.684 14.058-19.075 14.058-6.832 0-16.711-5.082-16.711-14.269 0-10.391 9.52-13.875 20.543-17.906 13.246-4.844 28.258-10.336 28.258-29.707 0-21.981-22.429-31.868-38.347-31.868-6.676 0-18.512 2.59-25.504 6.446-3.465 1.629-3.43 4.687-3.395 7.648l.008.988.598 14.196m125.523-14.266c0 1.285-1.137 2.727-2.656 2.727-.985 0-1.84-.739-3.403-2.071-2.472-2.105-6.203-5.293-10.644-5.293-2.383 0-4.27.707-5.766 2.157-4.453 4.308-4.449 14.211-4.445 20.761v.442 53.215c0 2.058.367 2.828.676 3.113.492.453 1.679.398 3.187.328a40.63 40.63 0 0 1 2.059-.062h10.922c.793 0 1.5-.036 2.121-.067 1.738-.086 3.109-.152 4.109.77.981.898 1.113 2.375 1.113 3.836 0 1.543 0 4.125-3.05 4.125l-19.211-.004c-1.559.121-1.926.25-1.926 2.949v14.898c0 3.118-1.551 3.774-2.852 3.774-1.906 0-2.793-1.91-3.132-2.649-4.36-9.8-9.715-14.816-18.172-20.714l-.446-.356c-.984-.785-2.336-1.859-2.336-3.668 0-.785.301-1.473.879-1.984 1.344-1.2 3.739-1.121 5.879-.95l.578.04 1.243.015c.812.02 1.824.043 2-.129.086-.074.343-.472.343-2.422v-54.058l-.019-2.985c-.09-8.132-.184-17.347 4.554-23.82 3.301-4.34 8.93-6.93 15.067-6.93 6.824 0 13.566 2.911 19 8.188 1.183.934 4.328 4.019 4.328 6.824m81.609 10.36c-1.207 0-2.226-.977-4.082-2.758-3.945-3.801-11.3-10.871-24.785-10.871-23.992 0-36.547 21.418-36.547 42.574 0 2.558.285 4.019.895 4.609.683.66 2.328.653 4.816.641h.992 59.102c1.098 0 3.637.472 3.637 4.844 0 7.16-2.977 16.336-7.078 21.82-6.508 8.547-17.129 13.449-29.133 13.449-13.59 0-26.039-4.961-36.004-14.336-9.895-9.265-14.305-20.32-14.305-35.847 0-27.754 20.043-49.493 45.625-49.493 12.797 0 22.578 3.727 31.715 12.094l.137.125c5.441 5.012 7.871 8.16 7.871 10.219 0 1.644-1.25 2.93-2.856 2.93m-59.183 54.64c5.601 8.387 14.679 13.399 24.269 13.399 4.836 0 11.532-1.051 15.985-6.02 2.89-3.32 4.765-7.828 4.765-11.492 0-3.883-1.925-6.082-6.257-7.133-5.485-1.414-16.321-1.625-22.293-1.625h-15.797c-.297 0-.621-.012-.965-.019-1.328-.047-3.336-.114-4.067.57-.132.125-.312.355-.312.906 0 2.879 2.84 9.016 4.672 11.414m121.328 18.633c-10.406 0-17.399-9.219-21.152-14.172-.532-.707-1.114-1.465-1.567-2.004-.035.43-.043 1.055 0 1.977l.02.566v10.281l.004.301c.007 1 .027 2.371-.918 3.297-.368.359-1.032.785-2.133.785-1.852 0-3.031-1.426-3.895-2.469-.207-.242-.39-.472-.636-.742-3.071-3.91-11.247-9.097-15.59-10.457-.235-.082-.504-.168-.785-.258-1.704-.531-4.547-1.425-4.547-4.468 0-1.778 1.425-2.926 3.633-2.926h2.535c2.277 0 4.05-.457 4.699-1.266 1.66-1.777 1.629-9.367 1.617-11.855v-.692-39.328c0-1.176.031-2.316.059-3.414.203-7.898-.039-11.73-7.68-12.492a20.93 20.93 0 0 0-.996-.062c-1.965-.098-5.621-.274-5.621-4.137 0-2.11 1.5-3.367 4.023-3.367 3.035 0 6.16.156 9.188.308 3.058.153 6.222.313 9.328.313 2.836 0 5.726-.145 8.785-.301 3.113-.156 6.324-.32 9.531-.32 2.246 0 3.637 1.371 3.637 3.578 0 3.519-3.742 3.781-5.75 3.922a21.69 21.69 0 0 0-.875.066c-7.637.762-7.875 4.594-7.672 12.492l.059 3.414v33.055.98c-.008 7.758-.012 12.879 4.242 19.364 2.082 2.804 5.23 7.035 8.898 7.035 1.868 0 2.946-1.219 4.547-3.215 1.703-2.121 3.824-4.762 7.934-4.762 5.586 0 9.488 3.969 9.488 9.649 0 6.457-5.336 11.324-12.41 11.324M65.477 227.383v.652c.008 2.723.023 9.098-1.121 11.153-1.039 2.05-3.148 2.207-5.805 2.207h-.195c-.93-.004-2.484-.016-3.48.941-.363.348-.793.969-.793 1.953 0 .805.285 1.508.828 2.031.668.645 1.684.989 2.941.989 1.793 0 3.594-.137 5.336-.27 1.688-.129 3.438-.258 5.129-.258 1.457 0 2.894.125 4.422.258 1.516.133 3.082.27 4.656.27 3.406 0 3.773-2.028 3.773-2.899 0-2-1.699-3.015-5.055-3.015-4.356 0-4.57-2.09-4.668-7.243l-.055-2.054.004-39.075c0-7.773 0-14.48-6.805-20.867-5.086-4.715-12.535-7-22.785-7-5.531 0-15.812.785-22.477 6.055-7.387 5.465-7.383 13.035-7.375 21.051v.761 39.375l.004 1.489c.02 3.34.031 5.547-.918 6.468-.738.719-2.379 1.04-5.32 1.04-2.809 0-4.238.976-4.238 2.894 0 .922.277 1.656.824 2.188.578.558 1.391.832 2.484.832 2.25 0 4.461-.137 6.594-.27 2.102-.125 4.274-.258 6.453-.258s4.41.133 6.57.262c2.188.129 4.453.266 6.703.266 2.035 0 3.305-1.157 3.305-3.02 0-1.918-1.465-2.894-4.352-2.894-2.937 0-4.578-.321-5.312-1.04-.949-.921-.937-3.128-.922-6.464l.004-1.493v-35.363-1.242c-.016-5.348-.039-13.43 2.273-17.441 3.918-6.957 14.519-7.497 17.676-7.497 4.469 0 12.73.825 17.848 6.348 3.852 4.266 3.848 9.395 3.848 15.336v34.844"/><path d="M142.203 171.703l-.5.043c-4.043.402-4.203 2.102-4.078 6.953l.031 2.059v19.828l.004 1.008c.012 5.828.024 11.859-3.715 17.054-3.484 4.793-8.465 7.223-14.804 7.223-7.934 0-13.606-5.207-16.996-8.316l-.786-.711v5.742l.004.207c.008.73.02 1.734-.711 2.453-.293.285-.816.625-1.66.625-1.375 0-2.207-1.012-2.758-1.68l-.387-.457c-1.719-2.203-6.516-5.277-9.031-6.066l-.449-.145c-1.078-.339-3.094-.972-3.094-3.183 0-1.367 1.094-2.285 2.723-2.285h1.512c1.414 0 2.164-.301 2.387-.578.387-.418.848-1.926.828-6.75v-.414-23.567l.031-2.058c.125-4.844-.039-6.54-4.074-6.942l-.57-.035c-1.16-.055-3.883-.188-3.883-2.988 0-1.168.773-2.528 2.957-2.528 1.844 0 3.723.129 5.539.258s3.68.27 5.492.27c1.656 0 3.363-.125 5.172-.254 1.871-.137 3.804-.274 5.754-.274 1.656 0 2.726 1.039 2.726 2.653 0 2.586-2.765 2.777-3.949 2.855l-.504.043c-4.047.402-4.207 2.098-4.086 6.945a67.63 67.63 0 0 1 .031 2.055v21.063c0 4.933.309 7.289 3.411 10.738 2.851 3.195 6.589 4.953 10.527 4.953 4.23 0 7.894-1.875 9.812-5.023 1.907-3.082 1.907-7.899 1.907-11.762v-19.957c0-.711.019-1.399.035-2.059.121-4.851-.039-6.551-4.082-6.953l-.571-.035c-1.164-.055-3.886-.188-3.886-2.988 0-1.168.773-2.528 2.961-2.528 1.84 0 3.722.133 5.547.258 1.808.133 3.675.27 5.492.27 1.652 0 3.359-.125 5.168-.254 1.871-.137 3.804-.274 5.746-.274 1.66 0 2.726 1.039 2.726 2.653 0 2.586-2.765 2.777-3.949 2.855m17.074 69.801c0 4.23 2.887 7.547 6.571 7.547 3.894 0 6.215-3.711 6.215-7.297 0-4.516-2.59-7.547-6.45-7.547-3.668 0-6.336 3.07-6.336 7.297m11.715-60.758a83.89 83.89 0 0 0-.031-2.058c-.125-4.84.039-6.54 4.074-6.946l.504-.039c1.184-.078 3.949-.269 3.949-2.855 0-1.614-1.066-2.657-2.726-2.657-1.942 0-3.879.141-5.746.278-1.809.129-3.512.25-5.168.25-1.817 0-3.684-.133-5.489-.266-1.824-.129-3.703-.262-5.546-.262-2.18 0-2.958 1.364-2.958 2.532 0 2.8 2.723 2.933 3.883 2.988l.571.031c4.039.406 4.203 2.106 4.078 6.946l-.035 2.058v23.567.414c.019 4.824-.434 6.332-.825 6.75-.222.273-.972.574-2.382.574h-1.516c-1.629 0-2.727.922-2.727 2.289 0 2.211 2.016 2.844 3.098 3.183l.449.145c2.516.789 7.309 3.863 9.031 6.066l.387.454c.551.671 1.383 1.683 2.758 1.683.84 0 1.363-.34 1.656-.625.735-.719.723-1.723.715-2.453l-.004-.207v-41.84m70.61 43.067c-.594.55-1.325.511-1.848.488l-.371-.012h-17.121c-.766 0-3.082 0-3.082-2.391 0-2.64 3.371-2.64 4.476-2.64.758 0 3.223-.153 3.223-2.117 0-.985-.66-2.813-1.102-4.028l-.347-.984c.027.074-9.004-21.231-12.434-29.324l-10.723 28.371-.16.406c-.523 1.356-1.621 4.168-1.621 5.438 0 1.765 1.879 2.238 2.988 2.238l.372-.016c1.011-.054 2.543-.133 3.511.754.465.426.711 1 .711 1.652 0 .809-.246 1.454-.73 1.918-.77.739-1.824.731-2.602.727l-.211-.004h-21.047l-.218.004c-.641.004-1.524.016-2.192-.621-.437-.422-.66-1.02-.66-1.774 0-1.753 1.188-2.64 3.465-2.64 3.703-.192 4.211-1.563 5.719-5.641l.304-.824 16.899-44 .679-1.574c.356-1.266 1.239-2.078 2.297-2.078 1.618 0 2.438 1.898 2.977 3.156l.144.324.051.082.039.094 16.684 38.918.73 1.781c1.743 4.32 3.723 9.215 7.762 9.774l.336.035c1.02.105 3.723.383 3.723 2.836 0 .273 0 1.101-.621 1.672m51.015-42.469c-.957 0-1.66-.684-2.832-1.817-2.297-2.226-6.582-6.371-14.39-6.371-13.95 0-21.247 12.594-21.247 25.032 0 1.835.262 2.281.372 2.39.25.238 1.386.235 2.484.231h.586 35.262c.636 0 2.722.246 2.722 3.402 0 4.379-1.816 10-4.328 13.371-3.992 5.258-10.488 8.273-17.828 8.273-8.258 0-15.824-3.023-21.871-8.734-6.063-5.66-8.77-12.391-8.77-21.828 0-16.91 12.235-30.156 27.844-30.156 7.793 0 13.746 2.254 19.391 7.39 4.285 3.973 4.863 5.528 4.863 6.524 0 1.285-.988 2.293-2.258 2.293m-34.84 31.906c3.243 4.871 8.477 7.777 14.008 7.777 2.77 0 6.598-.593 9.11-3.41 1.648-1.898 2.714-4.465 2.714-6.543 0-2.09-.957-3.176-3.32-3.75-3.211-.832-9.621-.957-13.156-.957h-9.426l-.586-.012c-.437-.015-1.773-.058-2.023.192l-.02.156c0 1.602 1.652 5.168 2.699 6.547m76.442 11.902c-6.414 0-10.668-5.523-12.989-8.582v6.039l.004.204c.008.726.02 1.714-.711 2.429-.296.289-.82.629-1.664.629-1.367 0-2.199-1.012-2.754-1.68l-.386-.457c-1.719-2.203-6.516-5.277-9.031-6.062l-.45-.149c-1.082-.339-3.097-.972-3.097-3.183 0-1.367 1.097-2.289 2.726-2.289h1.512c1.414 0 2.164-.301 2.387-.574.39-.418.843-1.93.824-6.75v-.414-23.567c0-.711.019-1.394.035-2.058.125-4.844-.039-6.54-4.074-6.942l-.571-.039c-1.164-.051-3.882-.184-3.882-2.984 0-1.168.769-2.532 2.953-2.532 1.844 0 3.726.137 5.543.266 1.808.129 3.676.262 5.492.262 1.652 0 3.363-.121 5.168-.254 1.871-.133 3.805-.274 5.75-.274 1.656 0 2.723 1.043 2.723 2.657 0 2.586-2.766 2.777-3.95 2.855l-.5.043c-4.039.402-4.207 2.098-4.078 6.942l.031 2.058v19.805.578c0 4.664-.003 7.48 2.43 11.199 1.176 1.582 2.953 3.981 4.856 3.981.855 0 1.394-.621 2.273-1.715 1.035-1.285 2.445-3.051 5.176-3.051 3.656 0 6.215 2.59 6.215 6.301 0 4.168-3.422 7.308-7.961 7.308m12.804-41.898l.024.176c.121 1.117.414 3.722 2.812 3.722 2.52 0 3.055-2.734 3.625-5.632 1.008-5.141 2.266-11.54 11.633-11.54 6.266 0 12.93 3.856 12.93 11 0 5.934-3.961 8.543-10.352 10.829l-1.011.343c-7.461 2.559-17.688 6.063-17.688 16.657 0 4.91 2.297 9.289 6.645 12.664 3.871 2.961 8.652 4.398 14.617 4.398 3.086 0 9.519-.863 12.586-2.226 2.414-1.223 2.238-3.801 2.109-5.684-.027-.41-.055-.793-.055-1.125l.04-.527c.199-2.344.316-4.946-.868-6.196-.441-.457-1.027-.707-1.664-.707-1.851 0-2.586 1.813-3.367 3.731-1.379 3.398-3.266 8.051-10.883 8.051-3.851 0-9.426-2.844-9.426-7.993 0-5.836 5.532-7.855 11.934-10.195 8.09-2.957 17.266-6.309 17.266-18.262 0-12.261-11.957-19.586-23.516-19.586-4.051 0-11.223 1.582-15.449 3.93-2.348 1.102-2.324 3.195-2.305 5.039l.008.59.355 8.543m63.184 50.953c3.863 0 6.453 3.031 6.453 7.547 0 3.586-2.324 7.297-6.219 7.297-3.683 0-6.566-3.317-6.566-7.547s2.664-7.297 6.332-7.297m9.93-62.504l-.508.043c-4.035.402-4.199 2.098-4.074 6.942l.035 2.058v41.84.207c.012.73.019 1.734-.715 2.453-.289.285-.816.625-1.656.625-1.371 0-2.207-1.012-2.758-1.68l-.387-.457c-1.719-2.203-6.515-5.277-9.027-6.066l-.449-.145c-1.082-.339-3.098-.972-3.098-3.183 0-1.367 1.094-2.285 2.723-2.285h1.515c1.41 0 2.16-.301 2.383-.578.387-.418.848-1.926.828-6.75l-.004-.414v-23.567c0-.715.016-1.398.035-2.058.125-4.844-.039-6.54-4.074-6.942l-.574-.035c-1.16-.055-3.879-.188-3.879-2.988 0-1.168.774-2.528 2.953-2.528 1.844 0 3.727.129 5.543.258 1.809.133 3.68.27 5.492.27 1.657 0 3.364-.125 5.172-.254 1.867-.137 3.805-.274 5.742-.274 1.661 0 2.731 1.039 2.731 2.653 0 2.586-2.77 2.777-3.949 2.855m38.871 2.992c0 1.024-.879 2.172-2.141 2.172-.801 0-1.406-.523-2.402-1.379-1.41-1.207-3.543-3.035-5.981-3.035-1.261 0-2.257.371-3.039 1.129-2.5 2.422-2.5 8.223-2.496 12.059v.261 31.871c0 1.219.223 1.465.231 1.473.172.109.961.07 1.492.051.371-.02.797-.039 1.254-.039h6.515c.457 0 .875-.02 1.239-.039 1.117-.055 2.093-.106 2.859.605.738.68.84 1.692.84 2.688 0 .82 0 3.008-2.375 3.008l-11.414-.004c-.36.027-.492.082-.531.097-.036.071-.11.305-.11 1.125v8.891c0 2.516-1.582 2.785-2.254 2.785-1.5 0-2.156-1.422-2.382-1.906-2.536-5.735-5.676-8.672-10.672-12.168l-.25-.203c-.641-.508-1.602-1.274-1.602-2.61 0-.617.25-1.179.707-1.586.969-.863 2.535-.816 3.93-.707l.301.024.75.008c.261.004.562.011.761.004.035-.157.067-.442.067-.993v-32.375l-.012-1.781c-.051-4.949-.109-10.558 2.812-14.582 2.067-2.758 5.59-4.402 9.422-4.402 4.215 0 8.368 1.801 11.707 5.07.817.648 2.774 2.602 2.774 4.488m61.453 49.594h-18.496c-1.637 0-2.957-1.293-2.957-2.887 0-2.144 2.805-2.144 4.004-2.144 3.207 0 4.832-1.086 4.832-3.231 0-1.164-.891-3.273-1.422-4.535l-.109-.25c-.004-.019-8.508-21.398-11.778-29.605l-11.789 30.449-.101.25c-.54 1.394-1.211 3.137-1.211 4.441 0 2.411 4.129 2.481 4.601 2.481 2.735 0 4.121.722 4.121 2.144 0 1.895-1.488 2.887-2.957 2.887h-22.453c-2.086 0-3.539-1.187-3.539-2.887 0-2.144 2.887-2.144 4.121-2.144 2.875 0 4.074-2.656 5.567-6.707l.519-1.371 15.34-39.106a30.69 30.69 0 0 1 .516-1.324c.488-1.203 1.043-2.57 1.043-3.648 0-.872-.313-1.664-.68-2.575l-.278-.726-3.957-9.91a29.6 29.6 0 0 1-.343-.922c-.555-1.547-.989-2.582-1.867-2.805-1.149-.269-2.594-.246-3.864-.226l-.945.011c-5.055 0-5.055-4.34-5.055-6.191 0-1.602.473-2.867 1.395-3.758 1.605-1.559 4.16-1.555 6.211-1.555h.246c5.066 0 5.687 1.356 6.879 5.633l.058.227 23.367 59.468c1 2.5 4.028 10.114 6.25 13.141 1 1.383 3.149 2.254 4.098 2.356l.559.058c1.179.106 3.148.289 3.148 1.953 0 1.801-1.234 3.008-3.074 3.008"/></g><path d="M549.668 247.344l.039-137.387c2.965-32.793 36.836-87.137 92.731-103.883l2.917-.594 2.711.594c55.864 16.734 89.707 71.504 92.668 104.688v136.582zm186.309-136.582c-2.848-31.727-35.469-84.153-89.317-100.289l-.84-.246-.285-.086-.285-.086-.277.086-.285.086-.844.246c-53.895 16.152-86.547 68.387-89.395 99.886-.011.25-.019 132.375-.019 132.375h181.547V110.762" fill="#fff"/><path d="M554.449 110.359c2.848-31.5 35.5-83.734 89.395-99.886l.844-.246.285-.086.277-.086.285.086.285.086.84.246c53.848 16.137 86.469 68.563 89.317 100.289v131.972H554.43l.019-132.375m4.742 80.164v47.454h172.028v-47.454-79.761c-2.481-27.426-31.969-79.707-85.969-95.883-53.992 16.176-83.582 68.457-86.059 95.883v79.761" class="D"/><path d="M663.738 127.793c-1.254 2.418-2.664 3.168-3.953 3.574-.148.379-.347.738-.594 1.078-1.66 2.301-4.359 2.606-6.296 1.891-.688-.254-1.11-.457-1.434-.652l.43.578.082.109c.316.402.601.82 1.027 1.883.734 1.875.422 4.484-1.957 6.098a5.5 5.5 0 0 1-1.109.574c-.407 1.219-1.172 2.597-3.7 3.82l-.691.34-.691-.34c-2.504-1.207-3.278-2.574-3.7-3.82a5.61 5.61 0 0 1-1.109-.574c-2.375-1.614-2.695-4.223-1.957-6.098.422-1.063.715-1.481 1.027-1.883l.086-.109.469-.633c-.332.211-.773.43-1.531.707-1.938.715-4.629.41-6.293-1.891a5.37 5.37 0 0 1-.598-1.074c-1.254-.391-2.683-1.137-3.945-3.578l-.348-.672.348-.676c1.25-2.418 2.66-3.168 3.945-3.574.152-.379.356-.738.598-1.078 1.664-2.301 4.355-2.605 6.293-1.895 1.101.407 1.531.692 1.945.997l.117.082.727.507v-6.199l-.758.61-.969-1.305-.086-.11c-.312-.402-.605-.82-1.027-1.882-.738-1.875-.418-4.489 1.957-6.094a5.37 5.37 0 0 1 1.109-.578c.407-1.219 1.172-2.602 3.7-3.824l.691-.332.691.332c2.5 1.211 3.274 2.578 3.7 3.824a5.37 5.37 0 0 1 1.109.578c2.379 1.605 2.691 4.219 1.957 6.094-.426 1.062-.711 1.48-1.027 1.882l-.082.11-.969 1.285-.762-.598v6.172l.68-.472.113-.082c.414-.305.848-.59 1.942-.997 1.937-.71 4.636-.406 6.296 1.895.247.34.446.699.594 1.074 1.262.395 2.688 1.137 3.953 3.578l.344.676zm-3.726-.66v-.078l-.051-.071c-.016-.019-1.395-1.867-3.367-1.406.254-.551.347-1.293-.192-2.031-.797-1.102-1.984-1.004-2.5-.793l-.32.125.219.262s.234.3.273.714c.039.403 0 1.004-.761 1.563-.368.27-1.313.312-1.696.309v-.004l-.058-.004h-4.539v-11.91c-.008-.356.035-1.34.32-1.707.582-.739 1.203-.778 1.621-.739s.73.266.734.266l.27.207.129-.305c.219-.504.32-1.652-.817-2.426-.769-.515-1.531-.429-2.101-.183.48-1.906-1.43-3.246-1.449-3.262l-.071-.047h-.078-.086l-.066.047c-.028.016-1.934 1.356-1.453 3.262-.571-.246-1.336-.332-2.102.183-1.141.774-1.035 1.922-.82 2.426l.133.309.269-.211s.309-.231.738-.266c.414-.039 1.036 0 1.614.739.281.355.324 1.273.312 1.636v.004l-.004.055v11.922h-4.746-.043l-.015.008c-.383.003-1.329-.039-1.696-.309-.761-.563-.8-1.16-.765-1.563.043-.414.277-.714.285-.714l.207-.262-.317-.125a2.13 2.13 0 0 0-2.5.793c-.535.738-.453 1.48-.191 2.031-1.969-.461-3.355 1.387-3.367 1.406l-.047.067v.078.082l.047.066c.012.024 1.398 1.868 3.367 1.407-.262.55-.344 1.293.191 2.035.797 1.101 1.989 1 2.5.793l.321-.129-.219-.262s-.234-.297-.277-.715c-.035-.402.004-1 .765-1.558.379-.282 1.399-.321 1.758-.313h4.742v6.594.043l.004.016c.012.367-.031 1.285-.312 1.64-.578.735-1.2.774-1.614.738-.429-.039-.738-.269-.742-.269l-.265-.207-.133.308c-.215.497-.321 1.649.82 2.422.766.52 1.531.43 2.102.184-.481 1.906 1.425 3.25 1.453 3.262l.062.047h.082.086l.071-.047c.019-.012 1.929-1.356 1.449-3.262.57.246 1.332.336 2.101-.184 1.137-.773 1.036-1.925.817-2.422l-.133-.312-.266.211c-.004 0-.312.23-.734.269s-1.039-.003-1.617-.738c-.289-.367-.332-1.355-.324-1.707v-6.586h4.527c.367-.008 1.387.031 1.766.313.761.558.8 1.156.761 1.558-.039.418-.273.715-.277.719l-.211.258.316.129c.516.207 1.703.308 2.5-.793.539-.742.446-1.485.192-2.035 1.972.461 3.351-1.383 3.367-1.407l.051-.066v-.078M645.25 14.879c54 16.176 83.484 68.457 85.969 95.883v79.761h-85.813H645h-85.809v-79.761c2.477-27.426 32.067-79.707 86.059-95.883m-49.914 46.066s-.098-1.363 1.637-2.699c0 0-2.535-2.141.84-5.078 0 0-5.833 2.422-2.477 7.777m24.09-18.437c-11.281 12.273-2.645 20.703 5.574 24.051 5.48 2.231 5.328 3.863 5.328 3.863s6.106-1.91 9.727.371c0 0-.84-2.793-2.68-5.191-9.09-11.809-15.375-5.86-15.375-5.86-7.25-3.262-2.574-17.234-2.574-17.234m.301 30.008l.457-.234c4.257-2.383 1.156-5.492 1.156-5.492.328 2.199-.395 3.008-1.238 3.34-.352.141-.61.184-.61.184.707.918.235 2.203.235 2.203m51.019-2.004s-.266-.043-.609-.184c-.844-.336-1.567-1.137-1.239-3.34 0 0-3.105 3.109 1.153 5.496l.457.234s-.473-1.285.238-2.207m-6.176 19.274l1.16-2.93c2.047-4.543-.957-10.504-.957-10.504 1.606 8.223-7.375 15.727-7.375 15.727 1.297 3.738 5.219 9.215 5.868 10.102h.011c.024-.297.43-1.293 2.555-4.547 6.121-9.371 11.645-8.738 11.645-8.738-5.133-2.695-12.907.891-12.907.891m-1.715 20.828c-11.019-18.945-18.996-21.527-3.609-34.507 0 0-9.84-2.656-12.109 5.59 0 0 .48-9.078-1.813-11.473-2.289 2.394-1.836 11.344-1.836 11.344-2.269-8.238-12.109-5.586-12.109-5.586 15.394 12.98 7.414 15.563-3.606 34.504-10.57 18.172.934 26.348 6.204 39.743 2.41.222 6.468 1.222 8.269 3.113 0 0 .859-1.543 3.09-2.145 2.211.641 3.238 2.188 3.238 2.188 1.5-1.891 5.996-2.934 8.176-3.082 5.27-13.395 16.676-21.52 6.105-39.688m-35.48-8.433v.015c.656-.902 4.582-6.379 5.875-10.117 0 0-8.98-7.504-7.371-15.727 0 0-3.008 5.961-.957 10.504.195.43 1.156 2.93 1.156 2.93s-7.769-3.586-12.902-.891c0 0 5.523-.633 11.64 8.738 2.125 3.254 2.532 4.25 2.559 4.547m37.242-60.563c-3.402-2.68-6.086 4.836-6.086 4.836s-.402-6.891-6.543-6.949c0 0 9.125 5.172-.406 17.281.922-8.496-2.137-16.402-6.258-16.402s-7.176 7.906-6.254 16.402c-9.535-12.109-.406-17.281-.406-17.281-6.141.059-6.543 6.949-6.543 6.949s-2.687-7.516-6.09-4.836c-5.187 4.09 3.844 8.141 3.844 8.141-5.277.324-6.051 3.207-6.051 3.207 13.328-1.402 19.242 12.125 19.242 12.125.872-.844 1.555-.973 2.247-1.305.695.332 1.402.461 2.269 1.305 0 0 5.914-13.527 19.246-12.125 0 0-.773-2.883-6.055-3.207 0 0 9.028-4.051 3.844-8.141m6.602.891s4.687 13.973-2.571 17.234c0 0-6.289-5.949-15.375 5.859-1.843 2.398-2.671 5.191-2.671 5.191 3.617-2.281 9.722-.371 9.722-.371s-.156-1.633 5.328-3.863c8.219-3.348 16.856-11.777 5.567-24.051m21.621 10.66c3.375 2.938.84 5.078.84 5.078 1.734 1.336 1.636 2.699 1.636 2.699 3.36-5.355-2.476-7.777-2.476-7.777m6.09 18.227c-.684-.469-1.524-.719-2.418-.719a4.7 4.7 0 0 0-3.032 1.09 6.58 6.58 0 0 1-4.125 1.496 4.71 4.71 0 0 1-.769-.062c-.645-.105-1.133-.344-1.313-.641-.683-1.121.875-2.613 2.305-3.672l.309-.215c1.238-.863 4.129-2.875 4.304-5.508.086-1.293-.48-2.508-1.687-3.613-.57-.523-1.371-.812-2.262-.812-.449 0-.906.074-1.347.223-1.985.66-3.422 2.637-3.946 5.414-.59 3.16-1.617 5.211-2.902 5.777a6.16 6.16 0 0 1-2.164.442c-.578 0-1.031-.125-1.32-.356-.348-.285-1.192-.902-1.192-.902a3.97 3.97 0 0 0-2.168-.656 3.56 3.56 0 0 0-2.098.668c-1.085.777-1.562 2.063-1.242 3.352.278 1.098.817 1.848 1.61 2.223a2.86 2.86 0 0 0 1.226.262c.957 0 1.903-.398 2.531-.695.25-.121.567-.18.938-.18.473 0 .883.102.996.133.133.074.219.215.219.254s-.129.266-.664.512c-7.281 3.371-8.785 7.313-8.844 7.481l-.477 1.293 1.368-.164a13.19 13.19 0 0 1 1.496-.086c2.41 0 4.289.637 4.308.644l.575.207.375-.488c.05-.062 4.777-6.062 8.726-6.062a3.4 3.4 0 0 1 1.406.293c1.168.527 1.684 2.586 1.7 3.57.023 1.551.941 2.887 2.343 3.406a3.21 3.21 0 0 0 1.129.207c.91 0 1.754-.391 2.383-1.094.898-1.023.82-2.027.691-2.535-.347-1.406-1.703-2.371-2.757-2.769-.532-.203-1.161-.731-1.274-1.074.098-.195.172-.231.438-.231l.816.031c.344 0 .633.043.938.09.574.086 1.332.199 2.109.199 2.07 0 3.41-.824 3.98-2.453.61-1.734.153-3.332-1.218-4.277m-1.825 12.879c-.183 1.133-1.464 1.703-1.464 1.703 5.203 1.769 5.679-2.734 5.679-2.734-1.722 2.805-4.215 1.031-4.215 1.031m5.129-17.848c2.094 3.898-1.058 5.035-1.058 5.035 1.133 1.844.547 3.09.547 3.09 5.093-3.867.511-8.125.511-8.125m-13.668 97.66s26.465 13.355 29.399 22.008c0 0 1.226-7.668.734-12.625-.441-4.403-7.496-11.598-24.539-22.637 10.457 1.551 24.785 6.984 27.906 12.418 0 0 .051-7.867-1.753-12.531-1.469-3.785-8.879-6.489-25.567-14.422 8.234-4.391 22.844.476 27.024 4.562 0 0-2.313-6.867-5.051-11.086-1.727-2.66-8.649-7.128-24.727-4.82 5.965-7.187 17.418-12.609 25.188-9.203 0 0-.805-6.832-5.516-8.828-3.488-1.473-10.844-2.41-22.57 6.387 7.074-16.957 24.328-11.778 24.328-11.778s-4.078-6.754-8.621-9.094c-4.031-2.074-12.336-.41-25.817 13.778 0 0 .844-12.559 14.106-16.781-23.074.551-27.207 17.496-27.207 17.496 2.199 3.136 2.59 4.769 2.59 4.769l.363.926c1.543-1.613 7.348-3.715 7.348-3.715s3.347 2.82 4.183 3.981c2.246 3.121 2.598 5.406 2.598 5.406 3.914-.098 7.496 3.207 7.496 3.207.223 3.476-1.254 6.379-1.254 6.379 2.785 1.234 5.656 4 5.656 4-1.867 3.832-3.093 5.074-3.093 5.074 4.449 3.336 4.609 5.379 4.609 5.379-1.102 2.891-5.156 5.734-5.156 5.734 1.742 2.258 3.382 6.672 3.382 6.672-3.203 3.113-6.296 4.047-6.296 4.047.496 1.762.382 3.445.257 5.297m-8.933 9.953s7.808-13.953.578-19.07c0 0 4.504.453 8.394-1.578 0 0-2.695-4.61-5.437-6.192 0 0 5.734-2.758 7.27-4.863 0 0-3.579-3.086-8.688-3.41 0 0 5.285-3.242 6.684-5.789 0 0-3.95-2.676-8.969-1.782 0 0 5.441-3.574 5.859-7.515 0 0-5.605-1.555-9.465 3.062 0 0 3.547-5.824 1.426-9.773-.68-1.262-2.004-2.488-2.004-2.488-3.441 1.632-3.992 1.781-4.269 5.422-.133 1.75.312 2.011.172 5.808-.114 3.113-.465 6.078-.465 6.078s7.261 1.16 5.535 13.446c0 0-9.902-6.481-10.977 2.343-1.308 10.723 15.457 5.239 14.356 26.301m-55.891-2.828c-.058-1.008 1.129-2.535 2.176-3.281 1.645-1.172 14.367-.391 15.797-.328-1.262 2.472-6.957 6.707-10.211 6.589-3.371-.113-4.184-3.148-4.184-3.148-1.461 1.613-1.687 4.172.438 6.34 1.851 1.89 10.746 2.394 11.18 2.879.445.476.828 1.804 2.917 1.433s4.067-3.679 9.836-2.234c0 0 4.727.316 3.68 2.98-.449 1.149-2.914 1.168-2.914 1.168s5.816 1 5.277-3.671c-.386-3.348-5.457-2.829-5.828-8.512-.051-.852-.418-12.196 5.938-16.422 0 0-7.559.492-10.567 8.254 0 0 0-5.668-1.957-5.688-1.718.02-2.406 5.469-2.406 5.469-.687-7.254-9.426-6.699-9.426-6.699 5.965.855 4.157 3.93 3.625 4.848-.8 1.382-3.457.695-4.285.472-3.953-1.078-3.652 1.387-3.652 1.387l10.121.004c2.695.215 2.414 2.523 2.715 3.418l-14.489-.317c-.933.051-1.39-.121-2.925.891s-.856 4.168-.856 4.168m-12.722 2.828c-1.106-21.062 15.664-15.578 14.355-26.301-1.074-8.824-10.977-2.343-10.977-2.343-1.726-12.286 5.536-13.446 5.536-13.446s-.352-2.965-.465-6.078c-.145-3.797.304-4.058.172-5.808-.282-3.641-.828-3.79-4.27-5.422 0 0-1.328 1.226-2.004 2.488-2.125 3.949 1.426 9.773 1.426 9.773-3.859-4.617-9.465-3.062-9.465-3.062.414 3.941 5.86 7.515 5.86 7.515-5.016-.894-8.973 1.782-8.973 1.782 1.398 2.547 6.683 5.789 6.683 5.789-5.105.324-8.683 3.41-8.683 3.41 1.535 2.105 7.262 4.863 7.262 4.863-2.739 1.582-5.43 6.192-5.43 6.192 3.887 2.031 8.394 1.578 8.394 1.578-7.23 5.117.579 19.07.579 19.07m-33.79-72.508s17.254-5.179 24.325 11.778c-11.719-8.797-19.075-7.86-22.567-6.387-4.718 1.996-5.515 8.828-5.515 8.828 7.769-3.406 19.218 2.016 25.187 9.203-16.078-2.308-23 2.16-24.73 4.82-2.731 4.219-5.051 11.086-5.051 11.086 4.184-4.086 18.793-8.953 27.023-4.562-16.687 7.933-24.093 10.637-25.562 14.422-1.809 4.664-1.758 12.531-1.758 12.531 3.129-5.434 17.445-10.867 27.91-12.418-17.047 11.039-24.097 18.234-24.535 22.637-.496 4.957.731 12.625.731 12.625 2.929-8.653 29.398-22.008 29.398-22.008-.125-1.852-.238-3.535.25-5.297 0 0-3.09-.934-6.297-4.047 0 0 1.649-4.414 3.391-6.672 0 0-4.055-2.843-5.157-5.734 0 0 .161-2.043 4.61-5.379 0 0-1.223-1.242-3.098-5.074 0 0 2.875-2.766 5.66-4 0 0-1.472-2.903-1.254-6.379 0 0 3.582-3.305 7.493-3.207 0 0 .351-2.285 2.601-5.406.836-1.161 4.184-3.981 4.184-3.981s5.801 2.102 7.351 3.715l.36-.926s.394-1.633 2.593-4.769c0 0-4.14-16.946-27.21-17.496 13.261 4.223 14.105 16.781 14.105 16.781-13.48-14.188-21.789-15.852-25.816-13.778-4.543 2.34-8.622 9.094-8.622 9.094m11.184-35.105s-4.582 4.258.516 8.125c0 0-.59-1.246.547-3.09 0 0-3.153-1.137-1.063-5.035m.918 16.816s.473 4.504 5.676 2.734c0 0-1.281-.57-1.461-1.703 0 0-2.492 1.773-4.215-1.031m1.168-7.57c.57 1.629 1.914 2.453 3.988 2.453.793 0 1.551-.113 2.106-.199.332-.051.672-.098.816-.098l.938-.023c.281 0 .343.047.449.215-.125.359-.758.891-1.289 1.094-1.133.422-2.426 1.445-2.754 2.762-.156.621-.16 1.57.687 2.535.625.707 1.469 1.098 2.383 1.098a3.24 3.24 0 0 0 1.129-.207c1.402-.516 2.324-1.852 2.352-3.406.011-.953.539-3.047 1.699-3.57a3.37 3.37 0 0 1 1.406-.293c3.945 0 8.672 6 8.719 6.063l.379.488.578-.207c.019-.008 1.836-.644 4.281-.644a13.59 13.59 0 0 1 1.52.086l1.367.164-.477-1.293c-.058-.168-1.562-4.109-8.843-7.481-.539-.246-.664-.473-.668-.512.004-.035.089-.18.347-.305a4.56 4.56 0 0 1 .86-.086c.375 0 .695.063.953.184.625.297 1.566.695 2.519.695.45 0 .864-.09 1.235-.266.793-.375 1.332-1.121 1.605-2.219a3.11 3.11 0 0 0-1.23-3.348c-.614-.445-1.344-.68-2.114-.68-.742 0-1.472.219-2.121.637-.019.012-.875.637-1.234.93-.285.231-.738.356-1.313.356a6.06 6.06 0 0 1-2.179-.449c-1.27-.559-2.297-2.609-2.895-5.769-.519-2.777-1.961-4.75-3.941-5.41a4.23 4.23 0 0 0-1.348-.227c-.89 0-1.695.289-2.262.813-1.207 1.102-1.777 2.316-1.687 3.613.172 2.629 3.059 4.641 4.289 5.496l.316.227c1.43 1.055 2.989 2.547 2.313 3.672-.18.297-.672.535-1.313.641-.234.039-.492.063-.769.063-1.469 0-3.012-.559-4.121-1.496-.836-.703-1.914-1.09-3.035-1.09-.899 0-1.735.25-2.422.723-1.371.941-1.824 2.539-1.219 4.273m52.238 99.587c0 .324-.105.629-.289.882l1.211.122.41.039-.105.382-.426 1.555-.098.371-.371-.14-7.14-2.692 3.828.207-.227-.726c0-.856.719-1.551 1.606-1.551s1.601.695 1.601 1.551" class="B"/><g class="C"><path d="M593.547 84.273c.18 1.133 1.465 1.703 1.465 1.703-5.207 1.769-5.68-2.734-5.68-2.734 1.723 2.805 4.215 1.031 4.215 1.031m-4.617-9.722c-5.098-3.867-.516-8.125-.516-8.125-2.09 3.898 1.063 5.035 1.063 5.035-1.137 1.844-.547 3.09-.547 3.09m8.043-16.305c-1.735 1.336-1.637 2.699-1.637 2.699-3.356-5.355 2.477-7.777 2.477-7.777-3.375 2.938-.84 5.078-.84 5.078m73.078 14.238c-4.258-2.387-1.153-5.496-1.153-5.496-.328 2.203.395 3.008 1.239 3.34a3.07 3.07 0 0 0 .609.184c-.711.922-.238 2.207-.238 2.207l-.457-.234m25.586 13.492s1.285-.57 1.468-1.703c0 0 2.493 1.773 4.215-1.031 0 0-.476 4.504-5.683 2.734m6.086-11.426s.59-1.246-.547-3.09c0 0 3.152-1.137 1.058-5.035 0 0 4.582 4.258-.511 8.125"/><path d="M693.68 58.246s2.535-2.141-.84-5.078c0 0 5.836 2.422 2.476 7.777 0 0 .098-1.363-1.636-2.699m-56.305 7.356c1.844 2.398 2.68 5.191 2.68 5.191-3.621-2.281-9.727-.371-9.727-.371s.152-1.633-5.328-3.863c-8.219-3.348-16.855-11.777-5.574-24.051 0 0-4.68 13.973 2.574 17.234 0 0 6.285-5.949 15.375 5.859m-26.934 89.368s-4.507.453-8.394-1.578c0 0 2.691-4.61 5.43-6.192 0 0-5.727-2.758-7.262-4.863 0 0 3.578-3.086 8.683-3.41 0 0-5.285-3.242-6.683-5.789 0 0 3.957-2.676 8.973-1.782 0 0-5.446-3.574-5.86-7.515 0 0 5.606-1.555 9.465 3.062 0 0-3.551-5.824-1.426-9.773.676-1.262 2.004-2.488 2.004-2.488 3.442 1.632 3.988 1.781 4.27 5.422.132 1.75-.317 2.011-.172 5.808l.461 6.078s-7.258 1.16-5.532 13.446c0 0 9.903-6.481 10.977 2.343 1.309 10.723-15.457 5.239-14.355 26.301 0 0-7.809-13.953-.579-19.07"/><path d="M611.668 106.215s-.844-12.559-14.105-16.781c23.07.551 27.21 17.492 27.21 17.492-2.199 3.14-2.593 4.777-2.593 4.777l-.36.922c-1.55-1.613-7.355-3.715-7.355-3.715s-3.344 2.82-4.18 3.981c-2.25 3.121-2.601 5.406-2.601 5.406-3.911-.098-7.493 3.207-7.493 3.207-.218 3.476 1.254 6.379 1.254 6.379-2.785 1.234-5.66 4-5.66 4 1.875 3.832 3.098 5.074 3.098 5.074-4.449 3.336-4.61 5.375-4.61 5.375 1.102 2.895 5.157 5.738 5.157 5.738-1.742 2.258-3.391 6.672-3.391 6.672 3.207 3.113 6.297 4.043 6.297 4.043-.488 1.762-.375 3.449-.25 5.301 0 0-26.469 13.355-29.398 22.008 0 0-1.231-7.668-.731-12.625.438-4.403 7.492-11.598 24.535-22.637-10.465 1.551-24.781 6.984-27.91 12.418 0 0-.051-7.867 1.758-12.531 1.469-3.785 8.879-6.489 25.562-14.422-8.23-4.391-22.839.476-27.023 4.562 0 0 2.32-6.867 5.051-11.086 1.73-2.66 8.652-7.128 24.73-4.82-5.969-7.191-17.418-12.609-25.187-9.207 0 0 .797-6.828 5.515-8.824 3.492-1.473 10.848-2.41 22.571 6.387-7.075-16.957-24.329-11.778-24.329-11.778s4.079-6.754 8.622-9.094c4.027-2.074 12.336-.41 25.816 13.778m1.508-17.32c5.133-2.695 12.902.891 12.902.891l-1.156-2.93c-2.051-4.543.957-10.504.957-10.504-1.609 8.223 7.375 15.727 7.375 15.727-1.297 3.738-5.223 9.215-5.867 10.102h-.012c-.027-.297-.434-1.293-2.559-4.547-6.117-9.371-11.64-8.738-11.64-8.738m64.301-.001s-5.524-.633-11.645 8.738c-2.125 3.254-2.531 4.25-2.555 4.547l-.004.015c-.656-.902-4.578-6.379-5.875-10.117 0 0 8.981-7.504 7.375-15.727 0 0 3.004 5.961.957 10.504-.199.43-1.16 2.93-1.16 2.93s7.774-3.586 12.907-.891m-80.301-17.128a6.57 6.57 0 0 0 4.125 1.496 4.75 4.75 0 0 0 .765-.062c.641-.102 1.133-.344 1.313-.641.676-1.125-.883-2.617-2.313-3.672l-.316-.227c-1.23-.856-4.117-2.867-4.289-5.496-.09-1.297.48-2.512 1.687-3.613.567-.523 1.372-.812 2.262-.812a4.23 4.23 0 0 1 1.348.227c1.98.66 3.418 2.633 3.941 5.41.598 3.16 1.625 5.215 2.895 5.773a6.16 6.16 0 0 0 2.179.445c.575 0 1.028-.121 1.313-.356l1.238-.93c.645-.414 1.375-.633 2.117-.633a3.57 3.57 0 0 1 2.114.676 3.11 3.11 0 0 1 1.23 3.344c-.273 1.102-.812 1.848-1.605 2.223-.371.176-.785.266-1.235.266-.953 0-1.894-.398-2.519-.695-.258-.121-.578-.184-.953-.184a4.56 4.56 0 0 0-.86.086c-.258.125-.343.27-.347.305.004.039.129.262.668.512 7.281 3.371 8.785 7.316 8.843 7.481l.477 1.293-1.367-.164a13.59 13.59 0 0 0-1.52-.086c-2.445 0-4.262.637-4.281.644l-.578.207-.379-.488c-.043-.062-4.774-6.067-8.723-6.067-.5 0-.972.102-1.402.297-1.16.523-1.688 2.621-1.703 3.57-.024 1.555-.946 2.891-2.348 3.406a3.24 3.24 0 0 1-1.129.207c-.914 0-1.758-.391-2.383-1.098-.847-.965-.843-1.91-.687-2.539.328-1.312 1.621-2.336 2.758-2.758.527-.203 1.16-.734 1.289-1.094-.11-.168-.172-.215-.453-.215l-.942.023c-.14 0-.48.047-.812.098-.555.086-1.313.199-2.106.199-2.074 0-3.414-.824-3.984-2.453-.609-1.734-.156-3.332 1.215-4.277.687-.469 1.523-.719 2.422-.719 1.121 0 2.199.387 3.035 1.09m22.926-1.636c.843-.336 1.566-1.141 1.238-3.34 0 0 3.101 3.105-1.156 5.492l-.457.234s.472-1.285-.235-2.203c0 0 .258-.043.61-.184m45.55-3.569c-5.484 2.231-5.328 3.863-5.328 3.863s-6.105-1.91-9.722.371c0 0 .828-2.793 2.671-5.191 9.086-11.809 15.375-5.859 15.375-5.859 7.258-3.262 2.571-17.234 2.571-17.234 11.289 12.273 2.652 20.703-5.567 24.051m10.602 78.835c1.726-12.286-5.535-13.446-5.535-13.446s.351-2.965.465-6.078c.14-3.797-.305-4.058-.172-5.808.281-3.641.828-3.79 4.269-5.422 0 0 1.324 1.226 2.004 2.488 2.121 3.949-1.426 9.773-1.426 9.773 3.86-4.617 9.465-3.062 9.465-3.062-.418 3.941-5.859 7.515-5.859 7.515 5.019-.894 8.969 1.782 8.969 1.782-1.399 2.547-6.684 5.789-6.684 5.789 5.105.324 8.688 3.41 8.688 3.41-1.536 2.105-7.27 4.863-7.27 4.863 2.742 1.582 5.437 6.192 5.437 6.192-3.89 2.031-8.398 1.578-8.398 1.578 7.234 5.117-.574 19.07-.574 19.07 1.101-21.062-15.664-15.578-14.356-26.301 1.075-8.824 10.977-2.343 10.977-2.343m18.351 9.347s-1.64-4.414-3.382-6.672c0 0 4.054-2.843 5.156-5.738 0 0-.16-2.039-4.609-5.375 0 0 1.222-1.242 3.093-5.074 0 0-2.871-2.766-5.66-4 0 0 1.481-2.906 1.258-6.379 0 0-3.582-3.305-7.496-3.207 0 0-.352-2.285-2.598-5.406-.836-1.161-4.183-3.981-4.183-3.981s-5.805 2.102-7.348 3.715l-.363-.922s-.391-1.637-2.59-4.777c0 0 4.133-16.942 27.207-17.492-13.262 4.223-14.106 16.781-14.106 16.781 13.481-14.188 21.786-15.852 25.817-13.778 4.543 2.34 8.621 9.094 8.621 9.094s-17.254-5.179-24.328 11.778c11.726-8.797 19.082-7.86 22.57-6.387 4.711 1.996 5.516 8.828 5.516 8.828-7.77-3.406-19.223 2.016-25.188 9.203 16.078-2.308 23 2.16 24.727 4.82 2.738 4.219 5.051 11.086 5.051 11.086-4.18-4.086-18.79-8.949-27.024-4.562 16.688 7.933 24.098 10.637 25.567 14.422 1.804 4.664 1.753 12.531 1.753 12.531-3.121-5.434-17.449-10.867-27.91-12.418 17.047 11.039 24.102 18.234 24.543 22.637.492 4.957-.734 12.625-.734 12.625-2.934-8.653-29.399-22.008-29.399-22.008.125-1.852.239-3.535-.257-5.297 0 0 3.097-.934 6.296-4.047m1.563-76.617c-.777 0-1.535-.113-2.109-.199-.305-.047-.594-.094-.938-.094-.027 0-.816-.027-.816-.027-.266 0-.34.039-.438.234.113.34.742.867 1.27 1.07 1.058.398 2.414 1.363 2.761 2.769.129.508.207 1.512-.691 2.535-.629.703-1.473 1.094-2.383 1.094a3.21 3.21 0 0 1-1.129-.207c-1.402-.519-2.32-1.852-2.347-3.406-.012-.984-.528-3.043-1.696-3.57a3.46 3.46 0 0 0-1.406-.297c-3.949 0-8.676 6.004-8.723 6.067l-.378.488-.579-.207c-.015-.004-1.894-.644-4.304-.644a13.19 13.19 0 0 0-1.496.086l-1.368.164.477-1.293c.059-.164 1.563-4.109 8.844-7.481.535-.246.66-.469.664-.512s-.086-.18-.219-.254c-.113-.031-.523-.133-.996-.133-.371 0-.688.059-.938.18-.628.297-1.574.695-2.531.695a2.86 2.86 0 0 1-1.226-.262c-.793-.375-1.336-1.125-1.61-2.227-.32-1.289.157-2.57 1.239-3.348a3.58 3.58 0 0 1 2.101-.668c.75 0 1.492.223 2.168.656 0 0 .844.617 1.192.902.289.234.742.356 1.32.356a6.2 6.2 0 0 0 2.168-.442c1.281-.566 2.308-2.617 2.898-5.777.524-2.777 1.961-4.754 3.946-5.414.441-.148.898-.223 1.347-.223.891 0 1.692.289 2.262.813 1.207 1.105 1.773 2.32 1.687 3.613-.175 2.633-3.07 4.644-4.304 5.504l-.309.219c-1.43 1.059-2.988 2.551-2.305 3.672.18.297.668.539 1.313.641a4.71 4.71 0 0 0 .769.063 6.6 6.6 0 0 0 4.125-1.492c.833-.707 1.911-1.094 3.032-1.094.894 0 1.734.25 2.418.719 1.371.945 1.828 2.543 1.218 4.277-.57 1.629-1.91 2.453-3.98 2.453"/><path d="M666.828 52.965c-13.332-1.402-19.246 12.125-19.246 12.125-.867-.844-1.574-.973-2.269-1.305-.692.332-1.375.461-2.247 1.305 0 0-5.914-13.527-19.242-12.125 0 0 .774-2.883 6.051-3.207 0 0-9.031-4.051-3.844-8.141 3.403-2.68 6.09 4.836 6.09 4.836s.402-6.891 6.543-6.949c0 0-9.129 5.172.406 17.285-.922-8.5 2.133-16.406 6.254-16.406s7.18 7.906 6.258 16.406c9.531-12.113.406-17.285.406-17.285 6.141.059 6.543 6.949 6.543 6.949s2.684-7.516 6.086-4.836c5.184 4.09-3.844 8.141-3.844 8.141 5.282.324 6.055 3.207 6.055 3.207m-42.23 114.078c1.539-1.012 1.992-.84 2.925-.891.883-.05 13.168.305 14.489.317-.301-.895-.02-3.203-2.715-3.418l-10.121-.004s-.301-2.465 3.652-1.387c.824.223 3.485.91 4.285-.472.532-.918 2.34-3.993-3.625-4.848 0 0 8.739-.555 9.426 6.699 0 0 .688-5.449 2.406-5.469 1.957.02 1.957 5.688 1.957 5.688 3.008-7.762 10.567-8.254 10.567-8.254-6.356 4.226-5.989 15.57-5.938 16.422.371 5.683 5.446 5.16 5.828 8.512.539 4.671-5.277 3.671-5.277 3.671s2.465-.019 2.914-1.168c1.047-2.664-3.68-2.98-3.68-2.98-5.769-1.449-7.746 1.859-9.836 2.234s-2.472-.957-2.917-1.437c-.434-.481-9.329-.981-11.18-2.875-2.125-2.168-1.899-4.727-.438-6.34 0 0 .813 3.035 4.184 3.148 3.254.114 8.949-4.117 10.211-6.589-1.43-.063-14.152-.844-15.797.328-1.047.746-2.234 2.273-2.176 3.281 0 0-.683-3.16.856-4.168m16.539 6.672c-.891 0-1.606.695-1.606 1.551l.227.726-3.828-.203 7.14 2.688.371.14.098-.371.426-1.555.105-.382-.41-.043-1.211-.121a1.48 1.48 0 0 0 .289-.879c0-.856-.715-1.551-1.601-1.551m15.613-23.414c-2.18.148-6.68 1.191-8.176 3.082 0 0-1.031-1.547-3.238-2.188-2.231.602-3.09 2.145-3.09 2.145-1.801-1.891-5.859-2.891-8.273-3.113-5.266-13.395-16.77-21.571-6.2-39.743 11.02-18.941 18.997-21.523 3.606-34.503 0 0 9.84-2.652 12.109 5.586 0 0-.453-8.949 1.836-11.344 2.293 2.394 1.813 11.473 1.813 11.473 2.269-8.246 12.109-5.59 12.109-5.59-15.387 12.98-7.41 15.563 3.613 34.507 10.567 18.168-.839 26.293-6.109 39.688m3.035-27.434c-.148-.375-.347-.734-.594-1.074-1.66-2.301-4.359-2.605-6.296-1.895-1.094.407-1.528.692-1.942.997l-.113.082-.68.472v-6.172l.762.598.969-1.285.082-.11c.316-.402.601-.82 1.023-1.882.738-1.875.426-4.489-1.953-6.094-.352-.238-.723-.43-1.109-.578-.426-1.246-1.2-2.613-3.696-3.824l-.695-.332-.695.332c-2.524 1.222-3.289 2.605-3.696 3.824-.39.148-.761.34-1.109.578-2.375 1.605-2.695 4.219-1.957 6.094.422 1.062.715 1.48 1.027 1.882l.086.11.969 1.305.758-.61v6.199l-.727-.507-.117-.082c-.414-.305-.844-.59-1.945-.997-1.938-.71-4.633-.406-6.293 1.895a5.01 5.01 0 0 0-.594 1.078c-1.289.406-2.699 1.156-3.949 3.574l-.348.672.348.676c1.262 2.441 2.691 3.184 3.949 3.578.152.375.352.734.594 1.074 1.66 2.301 4.355 2.606 6.293 1.891.758-.277 1.199-.496 1.531-.707l-.469.633-.086.109c-.312.402-.605.82-1.027 1.883-.738 1.875-.418 4.484 1.957 6.098a5.5 5.5 0 0 0 1.109.574c.422 1.246 1.196 2.613 3.696 3.82l.695.34.695-.34c2.524-1.223 3.289-2.601 3.696-3.82a5.61 5.61 0 0 0 1.109-.574c2.379-1.614 2.691-4.223 1.953-6.098-.422-1.063-.707-1.481-1.023-1.883l-.082-.109-.43-.574c.324.191.746.394 1.434.648 1.937.715 4.636.41 6.296-1.891.247-.34.446-.699.594-1.078 1.289-.406 2.699-1.156 3.949-3.574l.348-.676-.348-.672c-1.261-2.445-2.687-3.183-3.949-3.578m-3.191 5.817c.258.55.347 1.293-.192 2.035-.797 1.101-1.984 1-2.5.793l-.316-.129.211-.258c0-.004.238-.301.277-.719.039-.402 0-1-.761-1.558-.379-.282-1.399-.321-1.766-.317h-4.527v6.59c-.008.352.035 1.34.324 1.707.578.735 1.199.774 1.617.738s.73-.269.734-.269l.266-.211.133.312c.219.497.32 1.653-.817 2.422-.769.52-1.531.434-2.101.184.48 1.91-1.43 3.25-1.449 3.262l-.071.047h-.086-.078l-.066-.047c-.028-.012-1.934-1.352-1.453-3.262-.571.25-1.336.336-2.102-.184-1.141-.769-1.035-1.925-.82-2.422l.133-.308.265.207c.004 0 .313.23.742.269.414.036 1.036-.003 1.614-.738.281-.355.324-1.273.312-1.64l-.004-.016v-.043-6.598h-4.742c-.359-.004-1.379.035-1.758.317-.761.558-.8 1.156-.765 1.558a1.52 1.52 0 0 0 .277.715l.219.262-.321.129c-.511.207-1.703.308-2.5-.793-.535-.742-.453-1.485-.191-2.035-1.969.464-3.355-1.383-3.367-1.407l-.047-.066v-.082-.078l.047-.067c.012-.023 1.398-1.867 3.367-1.406-.262-.551-.344-1.293.191-2.031.797-1.102 1.989-1 2.5-.797l.317.129-.207.258a1.46 1.46 0 0 0-.285.718c-.035.403.004 1 .765 1.563.367.27 1.313.312 1.696.309l.015-.008h.043 4.746v-11.926l.004-.051v-.004c.012-.363-.031-1.281-.312-1.636-.578-.739-1.2-.778-1.614-.743-.429.039-.738.27-.738.27l-.269.211-.133-.309c-.215-.504-.321-1.652.82-2.426.766-.515 1.531-.429 2.102-.183-.481-1.906 1.425-3.246 1.453-3.262l.066-.047h.082.082l.071.047c.019.016 1.929 1.356 1.449 3.262.57-.246 1.332-.332 2.101.183 1.137.774 1.036 1.922.817 2.426l-.129.305-.27-.207c-.004 0-.312-.231-.734-.27s-1.039.004-1.621.743c-.285.363-.328 1.351-.32 1.707v11.91h4.539l.058.008h0c.383.003 1.328-.039 1.696-.309.761-.559.8-1.16.761-1.563-.039-.414-.277-.714-.277-.714l-.215-.262.32-.129c.516-.203 1.703-.305 2.5.797.539.738.45 1.48.192 2.031 1.972-.461 3.351 1.383 3.367 1.406l.051.071v.078.078l-.051.066c-.016.024-1.395 1.871-3.367 1.407"/></g><path d="M645.406 190.523h85.813v47.454H559.191v-47.454H645zm42.496 30.879l5.157-1.074.98 2.664 3.008-3.301-.871 8.532 3.164-2.532 3.398 6.418 3.403-6.418 3.16 2.532-.871-8.532 3.011 3.301.977-2.664 5.16 1.074-1.422-5.363 2.449-.738-8.062-7.391 1.754-2.722-8 .652c-.199-.719-.641-2.613-.488-4.86.105-1.621.882-2.128 1.507-2.539l1.325-.906h-7.797l1.332.918c.637.414 1.429.926 1.492 2.516.09 2.246-.313 4.14-.5 4.871l-7.988-.652 1.754 2.722-8.063 7.391 2.449.738zm-91.121-16.214l-7.988.652c-.184-.735-.586-2.625-.496-4.875.062-1.586.855-2.102 1.492-2.512l1.34-.918h-7.801l1.32.906c.622.411 1.399.918 1.508 2.536.153 2.25-.289 4.144-.488 4.863l-8-.652 1.758 2.722-8.067 7.391 2.446.738-1.414 5.363 5.16-1.074.972 2.664 3.008-3.301-.871 8.532 3.164-2.532 3.403 6.418 3.402-6.418 3.164 2.532-.875-8.532 3.012 3.301.972-2.664 5.157 1.074-1.414-5.363 2.449-.738-8.067-7.391zm43.715-8.243l-.113-.234h-25.36v28.426h5.043v4.199l4.098.012c.074-.004 5.328-.219 7.973.82 4.992 1.969 8.918 2.129 11.593.559.141-.082.282-.168.415-.258.109-.074.234-.129.335-.211.024-.016.043-.035.067-.051.371-.297.711-.629 1.019-1.008.407.496.879.895 1.391 1.25.141.102.289.192.441.278 2.68 1.574 6.61 1.41 11.594-.559 2.645-1.043 7.899-.82 7.953-.82l4.118-.012v-4.199h5.046v-28.426h-25.367l-.113.238c-.016.035-1.785 3.645-5.055 3.645h-.039c-3.234-.028-5.019-3.61-5.039-3.649" class="D"/><path d="M600.648 216.039l1.411 5.363-5.157-1.074-.976 2.664-3.008-3.301.875 8.532-3.164-2.532-3.402 6.418-3.403-6.418-3.164 2.532.875-8.532-3.012 3.301-.972-2.664-5.16 1.074 1.414-5.363-2.446-.738 8.067-7.391-1.758-2.722 8 .652c.199-.719.641-2.613.488-4.863-.105-1.618-.886-2.125-1.508-2.536l-1.32-.91h7.801l-1.34.922c-.637.41-1.43.926-1.492 2.516-.09 2.246.312 4.136.496 4.871l7.988-.652-1.754 2.722 8.067 7.391-2.446.738m94.286-8.129l-1.754-2.722 7.988.652c.184-.731.59-2.625.5-4.871-.063-1.59-.855-2.102-1.488-2.516l-1.34-.918h7.801l-1.325.906c-.625.407-1.402.918-1.507 2.539a14.95 14.95 0 0 0 .492 4.86l7.996-.652-1.754 2.722 8.062 7.391-2.449.738 1.422 5.363-5.16-1.074-.977 2.664-3.011-3.301.871 8.532-3.164-2.532-3.399 6.418-3.398-6.418-3.164 2.532.871-8.532-3.008 3.301-.98-2.664-5.157 1.074 1.418-5.363-2.449-.738 8.063-7.391" class="B"/><path d="M645.574 200.594c3.27 0 5.039-3.61 5.055-3.645l.113-.238h25.367v28.426h-5.046v-24.184l-.418-.004c-.309 0-7.598-.074-9.145.102-.977.113-2.457.664-4.172 1.304-3.18 1.188-7.305 2.719-9.93 2.012-.156-.043-.308-.09-.453-.148-.207-.082-.379-.215-.558-.336a6.6 6.6 0 0 1-.215-.145c-.098-.078-.219-.121-.305-.211l-.301-.304-.3.304c-.313.321-.7.539-1.118.703-.132.051-.277.09-.418.129-2.625.711-6.746-.816-9.925-2.004-1.715-.64-3.2-1.191-4.176-1.304-.832-.098-3.32-.117-5.492-.121l-3.649.019-.422.004v24.184h-5.043v-28.426h25.36l.113.234c.02.039 1.805 3.621 5.039 3.649h.039" class="C"/><g class="B"><path d="M622.488 226.922l1.629.004 1.285-.02c2.305 0 5.496.176 7.625 1.012 2.442.961 4.582 1.449 6.364 1.449 1.382 0 2.519-.301 3.382-.894l.293-.184a4.17 4.17 0 0 0 .625-.621l.039-.047v3.106c-2.675 1.57-6.601 1.41-11.593-.559-2.645-1.039-7.899-.824-7.973-.82l-4.098-.012v-4.199h2.422v1.785"/><path d="M620.488 200.949l3.649-.019 5.492.121c.98.113 2.461.664 4.176 1.304 3.179 1.188 7.3 2.715 9.925 2.004v2.481c-.472.082-.976.125-1.507.125-2.993 0-6.469-1.297-9.266-2.34-1.437-.535-2.922-1.09-3.605-1.168-.266-.031-1.305-.102-5.215-.105l-1.649.003v21.782h-2.422v-24.184l.422-.004"/></g><path d="M645.566 225.371l1.832 2.246v3.11l-.441-.278c-.512-.355-.984-.754-1.391-1.25-.308.379-.648.711-1.019 1.008-.024.016-.043.031-.067.051-.101.082-.226.137-.335.211l-.415.258v-3.106l1.836-2.25" class="C"/><path d="M647.441 227.672c.219.262.504.516.899.793.863.601 2.008.906 3.398.906 1.782 0 3.922-.488 6.367-1.453 2.118-.836 5.313-1.012 7.618-1.012l1.254.02 1.664-.004v-1.785h2.422v4.199l-4.118.012c-.054 0-5.308-.223-7.953.82-4.984 1.969-8.914 2.133-11.594.559v-3.11l.043.055m21.2-24.317c-.489 0-1.039-.003-1.614-.003l-5.25.101c-.683.082-2.168.637-3.605 1.172-2.797 1.043-6.281 2.344-9.266 2.344-.531 0-1.031-.043-1.508-.125v-2.477c2.625.707 6.75-.824 9.926-2.012 1.719-.64 3.199-1.191 4.176-1.304 1.547-.176 8.836-.102 9.145-.102l.418.004v24.184h-2.422v-21.782" class="B"/><path d="M646.039 206.465c-.172-.07-.324-.149-.461-.223l-.555.242c-.398.157-.832.274-1.293.356v-2.481l.415-.129c.421-.164.808-.382 1.121-.703l.3-.304.301.304c.086.09.207.133.305.211l.215.145c.179.121.351.254.558.336.145.058.297.105.453.148v2.477c-.484-.082-.937-.211-1.359-.379" class="C"/><path d="M647.398 206.844c.477.082.977.125 1.508.125 2.985 0 6.469-1.301 9.266-2.344l3.605-1.168c.266-.031 1.317-.105 5.25-.105l1.618.003v21.782 1.785l-1.668.004-1.254-.02c-2.305 0-5.5.176-7.618 1.012-2.445.965-4.585 1.453-6.367 1.453-1.39 0-2.535-.305-3.398-.906-.399-.277-.684-.531-.899-.793l-.043-.055v-20.773" class="B"/><path d="M645.578 206.242l.461.223c.422.168.875.297 1.359.379v18.293 2.48l-1.832-2.246-1.836 2.25v-2.484-18.297a6.87 6.87 0 0 0 1.297-.356l.551-.242" class="C"/><path d="M643.73 227.621l-.039.047a4.17 4.17 0 0 1-.625.621l-.293.184c-.863.593-2 .894-3.382.894-1.782 0-3.922-.488-6.364-1.449-2.129-.836-5.32-1.012-7.625-1.012l-1.285.02-1.629-.004v-1.785-21.782l1.649-.003 5.215.105c.683.078 2.168.633 3.605 1.168 2.797 1.043 6.273 2.34 9.266 2.34.531 0 1.035-.043 1.507-.125v20.781" class="B"/><path d="M867.996 0h-5v426.965h5V0" class="D"/><path d="M1010.23 304.457v-27.234h32.05v-12.418h-32.05v-28.434h36.05v-12.418h-51.26v92.918h51.26v-12.414h-36.05m104.87-9.344c4.58-2.402 8.16-5.968 10.74-10.683 2.59-4.719 3.88-10.41 3.88-17.086v-43.391h-15.09v41.121c0 6.586-1.65 11.637-4.94 15.153s-7.79 5.269-13.48 5.269c-5.7 0-10.21-1.758-13.55-5.269s-5.01-8.567-5.01-15.153v-41.121h-15.22v73.563h15.22v-8.414c2.49 3.027 5.67 5.386 9.55 7.074 3.86 1.691 7.99 2.539 12.34 2.539 5.79 0 10.98-1.199 15.56-3.602m85.35-21.093c-2.09 3.734-4.83 6.582-8.21 8.543a21.52 21.52 0 0 1-10.95 2.933c-3.92 0-7.56-.953-10.95-2.867-3.38-1.914-6.11-4.719-8.2-8.41s-3.15-8.074-3.15-13.149 1.06-9.527 3.15-13.351 4.84-6.742 8.27-8.742 7.05-3.004 10.88-3.004c3.92 0 7.57.976 10.95 2.933s6.12 4.828 8.21 8.614 3.13 8.207 3.13 13.281-1.04 9.476-3.13 13.219zm-7.21 21.293c4.41-2.27 7.85-5.098 10.34-8.477v10.68h15.36v-74.762c0-6.77-1.43-12.793-4.27-18.098-2.85-5.293-6.96-9.453-12.36-12.476-5.38-3.032-11.81-4.543-19.28-4.543-9.97 0-18.24 2.343-24.84 7.011-6.58 4.676-10.32 11.016-11.21 19.024h15.09c1.15-3.828 3.62-6.914 7.41-9.277 3.78-2.356 8.29-3.536 13.55-3.536 6.14 0 11.1 1.868 14.88 5.606s5.67 9.172 5.67 16.289v12.281c-2.57-3.472-6.07-6.387-10.47-8.746-4.41-2.351-9.42-3.535-15.02-3.535-6.41 0-12.26 1.621-17.55 4.875-5.31 3.246-9.49 7.785-12.55 13.617-3.08 5.824-4.61 12.438-4.61 19.824s1.53 13.926 4.61 19.621c3.06 5.696 7.24 10.125 12.55 13.286 5.29 3.156 11.14 4.738 17.55 4.738 5.69 0 10.75-1.137 15.15-3.402m60.14 2.203v-73.563h-15.23v73.563zm-14.42 12.547c-1.87 1.871-2.81 4.179-2.81 6.945 0 2.754.94 5.066 2.81 6.937s4.18 2.801 6.94 2.801c2.67 0 4.94-.93 6.81-2.801s2.8-4.183 2.8-6.937c0-2.766-.93-5.074-2.8-6.945s-4.14-2.801-6.81-2.801c-2.76 0-5.07.929-6.94 2.801m86.3-14.95c4.59-2.402 8.17-5.968 10.76-10.683 2.57-4.719 3.86-10.41 3.86-17.086v-43.391h-15.08v41.121c0 6.586-1.65 11.637-4.94 15.153-3.3 3.511-7.79 5.269-13.48 5.269-5.7 0-10.22-1.758-13.56-5.269-3.33-3.516-5-8.567-5-15.153v-41.121h-15.22v73.563h15.22v-8.414c2.49 3.027 5.68 5.386 9.54 7.074 3.88 1.691 7.99 2.539 12.36 2.539 5.78 0 10.96-1.199 15.54-3.602m84.71-27.769c-.09 5.605-2.09 10.097-6.01 13.48-3.91 3.387-8.76 5.074-14.55 5.074-5.25 0-9.74-1.668-13.48-5.003s-5.97-7.86-6.67-13.551zm15.35-12.285h-56.2c.44-5.875 2.63-10.59 6.54-14.153 3.92-3.558 8.72-5.336 14.42-5.336 8.19 0 13.97 3.422 17.35 10.282h16.43c-2.23-6.77-6.26-12.305-12.08-16.622-5.83-4.32-13.07-6.476-21.7-6.476-7.03 0-13.33 1.578-18.89 4.742-5.56 3.152-9.93 7.606-13.08 13.348-3.16 5.738-4.74 12.394-4.74 19.957s1.53 14.219 4.6 19.961c3.08 5.738 7.39 10.168 12.95 13.281s11.95 4.672 19.16 4.672c6.94 0 13.12-1.512 18.55-4.539a32.13 32.13 0 0 0 12.69-12.75c3.03-5.473 4.54-11.77 4.54-18.891 0-2.762-.19-5.25-.54-7.476m66.22 12.285c-.08 5.605-2.09 10.097-6 13.48-3.92 3.387-8.77 5.074-14.55 5.074-5.26 0-9.75-1.668-13.49-5.003s-5.97-7.86-6.67-13.551zm15.35-12.285h-56.2c.44-5.875 2.63-10.59 6.55-14.153 3.91-3.558 8.72-5.336 14.41-5.336 8.19 0 13.98 3.422 17.35 10.282h16.43c-2.23-6.77-6.26-12.305-12.08-16.622-5.83-4.32-13.07-6.476-21.7-6.476-7.03 0-13.33 1.578-18.89 4.742-5.56 3.152-9.93 7.606-13.08 13.348-3.16 5.738-4.74 12.394-4.74 19.957s1.53 14.219 4.6 19.961c3.08 5.738 7.39 10.168 12.95 13.281 5.57 3.113 11.95 4.672 19.16 4.672 6.94 0 13.13-1.512 18.56-4.539a32.17 32.17 0 0 0 12.68-12.75c3.03-5.473 4.54-11.77 4.54-18.891 0-2.762-.18-5.25-.54-7.476m38.78 40.515c3.7 2.094 8.08 3.141 13.15 3.141v-15.75h-3.87c-5.97 0-10.48-1.52-13.55-4.543s-4.6-8.274-4.6-15.75v-38.719h-15.23v73.563h15.23v-10.68c2.21 3.734 5.18 6.648 8.87 8.738m41.59 1.942v-73.563h-15.23v73.563zm-14.43 12.547c-1.86 1.871-2.8 4.179-2.8 6.945 0 2.754.94 5.066 2.8 6.937 1.88 1.871 4.19 2.801 6.95 2.801 2.67 0 4.94-.93 6.8-2.801 1.88-1.871 2.8-4.183 2.8-6.937 0-2.766-.92-5.074-2.8-6.945-1.86-1.872-4.13-2.801-6.8-2.801-2.76 0-5.07.929-6.95 2.801m86.31-14.95c4.59-2.402 8.16-5.968 10.75-10.683 2.58-4.719 3.87-10.41 3.87-17.086v-43.391h-15.09v41.121c0 6.586-1.64 11.637-4.93 15.153-3.3 3.511-7.79 5.269-13.49 5.269-5.69 0-10.21-1.758-13.55-5.269-3.33-3.516-5-8.567-5-15.153v-41.121h-15.23v73.563h15.23v-8.414c2.49 3.027 5.67 5.386 9.54 7.074 3.88 1.691 7.99 2.539 12.35 2.539 5.79 0 10.97-1.199 15.55-3.602m85.06-21.093c-2.09 3.734-4.83 6.582-8.21 8.543a21.52 21.52 0 0 1-10.95 2.933c-3.92 0-7.57-.953-10.95-2.867s-6.11-4.719-8.21-8.41c-2.09-3.696-3.14-8.074-3.14-13.149s1.05-9.527 3.14-13.351c2.1-3.828 4.85-6.742 8.28-8.742s7.05-3.004 10.88-3.004c3.92 0 7.57.976 10.95 2.933s6.12 4.828 8.21 8.614 3.13 8.207 3.13 13.281-1.04 9.476-3.13 13.219zm-7.21 21.293c4.41-2.27 7.85-5.098 10.34-8.477v10.68h15.36v-74.762c0-6.77-1.43-12.793-4.27-18.098-2.85-5.293-6.96-9.453-12.36-12.476-5.38-3.032-11.81-4.543-19.28-4.543-9.97 0-18.24 2.343-24.84 7.011-6.58 4.676-10.32 11.016-11.21 19.024h15.09c1.15-3.828 3.62-6.914 7.4-9.277 3.79-2.356 8.3-3.536 13.56-3.536 6.14 0 11.1 1.868 14.88 5.606s5.67 9.172 5.67 16.289v12.281c-2.57-3.472-6.07-6.387-10.47-8.746-4.41-2.351-9.42-3.535-15.02-3.535-6.41 0-12.26 1.621-17.56 4.875-5.3 3.246-9.48 7.785-12.55 13.617-3.07 5.824-4.6 12.438-4.6 19.824s1.53 13.926 4.6 19.621 7.25 10.125 12.55 13.286 11.15 4.738 17.56 4.738c5.69 0 10.75-1.137 15.15-3.402" class="C"/></g></svg>