<?xml version="1.0" encoding="UTF-8" standalone="no"?>
<!-- Created with Inkscape (http://www.inkscape.org/) -->

<svg
   xmlns:dc="http://purl.org/dc/elements/1.1/"
   xmlns:cc="http://creativecommons.org/ns#"
   xmlns:rdf="http://www.w3.org/1999/02/22-rdf-syntax-ns#"
   xmlns:svg="http://www.w3.org/2000/svg"
   xmlns="http://www.w3.org/2000/svg"
   xmlns:sodipodi="http://sodipodi.sourceforge.net/DTD/sodipodi-0.dtd"
   xmlns:inkscape="http://www.inkscape.org/namespaces/inkscape"
   width="32"
   height="32"
   viewBox="0 0 32 32"
   version="1.1"
   id="SVGRoot"
   inkscape:version="0.92.3 (2405546, 2018-03-11)"
   sodipodi:docname="trash.svg">
  <sodipodi:namedview
     id="base"
     pagecolor="#ffffff"
     bordercolor="#666666"
     borderopacity="1.0"
     inkscape:pageopacity="0.0"
     inkscape:pageshadow="2"
     inkscape:zoom="11.313709"
     inkscape:cx="18.522017"
     inkscape:cy="17.767767"
     inkscape:document-units="px"
     inkscape:current-layer="g23"
     showgrid="true"
     inkscape:window-width="1920"
     inkscape:window-height="1017"
     inkscape:window-x="1912"
     inkscape:window-y="-8"
     inkscape:window-maximized="1"
     inkscape:grid-bbox="true"
     inkscape:pagecheckerboard="false">
    <inkscape:grid
       type="xygrid"
       id="grid3735" />
  </sodipodi:namedview>
  <defs
     id="defs3713" />
  <metadata
     id="metadata3716">
    <rdf:RDF>
      <cc:Work
         rdf:about="">
        <dc:format>image/svg+xml</dc:format>
        <dc:type
           rdf:resource="http://purl.org/dc/dcmitype/StillImage" />
        <dc:title></dc:title>
      </cc:Work>
    </rdf:RDF>
  </metadata>
  <g
     id="layer1"
     inkscape:groupmode="layer"
     inkscape:label="Layer 1">
    <g
       id="g23"
       transform="matrix(0.88,0,0,0.88,0.6,0.24)">
      <path
         style="fill:#000000;fill-opacity:1;stroke-width:1.63041043"
         d="m 6.1363636,10.356311 c 0,0 5.6818184,0.734598 11.3636364,0.734598 5.681818,0 11.263195,-0.533716 11.263195,-0.533716 l 0.100441,17.579171 c 0,4.545454 -5.053574,5.534647 -8.399033,5.591402 -3.472684,0.05891 -1.828239,0.09042 -5.23733,0.09042 -3.409091,-2e-6 -9.0909094,-1.136364 -9.0909094,-5.681818 z"
         id="rect820"
         inkscape:connector-curvature="0"
         sodipodi:nodetypes="czccsccc" />
      <path
         style="fill:#000000;fill-opacity:1;stroke-width:1.33715558"
         d="m 3.8636363,4.272728 c 0,0 9.0909087,-1.1363644 13.6363637,-1.1363644 4.545455,0 13.636364,1.1363644 13.636364,1.1363644 v 3.4090902 c 0,0 -6.818182,1.1363636 -13.636364,1.1363636 -6.818182,0 -13.6363636,-1.1363636 -13.6363636,-1.1363636 z"
         id="rect823"
         inkscape:connector-curvature="0"
         sodipodi:nodetypes="czcczcc" />
      <rect
         style="fill:#000000;fill-opacity:1;stroke-width:1.13636363"
         id="rect825"
         width="11.363636"
         height="3.4090908"
         x="11.818182"
         y="2.0000002"
         ry="0" />
    </g>
  </g>
</svg>
