<?xml version="1.0" encoding="UTF-8" standalone="no"?>
<!-- Created with Inkscape (http://www.inkscape.org/) -->

<svg
   xmlns:dc="http://purl.org/dc/elements/1.1/"
   xmlns:cc="http://creativecommons.org/ns#"
   xmlns:rdf="http://www.w3.org/1999/02/22-rdf-syntax-ns#"
   xmlns:svg="http://www.w3.org/2000/svg"
   xmlns="http://www.w3.org/2000/svg"
   xmlns:sodipodi="http://sodipodi.sourceforge.net/DTD/sodipodi-0.dtd"
   xmlns:inkscape="http://www.inkscape.org/namespaces/inkscape"
   width="32"
   height="40"
   viewBox="0 0 32 40"
   version="1.1"
   id="SVGRoot"
   inkscape:version="0.92.3 (2405546, 2018-03-11)"
   sodipodi:docname="trash_open2.svg">
  <sodipodi:namedview
     id="base"
     pagecolor="#ffffff"
     bordercolor="#666666"
     borderopacity="1.0"
     inkscape:pageopacity="0.0"
     inkscape:pageshadow="2"
     inkscape:zoom="32.000001"
     inkscape:cx="7.3613352"
     inkscape:cy="18.263566"
     inkscape:document-units="px"
     inkscape:current-layer="g23"
     showgrid="true"
     inkscape:window-width="3840"
     inkscape:window-height="2019"
     inkscape:window-x="-14"
     inkscape:window-y="-14"
     inkscape:window-maximized="1"
     inkscape:grid-bbox="true"
     inkscape:pagecheckerboard="false">
    <inkscape:grid
       type="xygrid"
       id="grid3735" />
  </sodipodi:namedview>
  <defs
     id="defs3713" />
  <metadata
     id="metadata3716">
    <rdf:RDF>
      <cc:Work
         rdf:about="">
        <dc:format>image/svg+xml</dc:format>
        <dc:type
           rdf:resource="http://purl.org/dc/dcmitype/StillImage" />
        <dc:title></dc:title>
      </cc:Work>
    </rdf:RDF>
  </metadata>
  <g
     id="layer1"
     inkscape:groupmode="layer"
     inkscape:label="Layer 1"
     transform="translate(0,8)">
    <g
       id="g23"
       transform="matrix(0.88,0,0,0.88,0.6,0.24)">
      <path
         style="fill:#000000;fill-opacity:1;stroke-width:1.63041043"
         d="m 6.1363636,10.356311 c 0,0 5.6818184,0.734598 11.3636364,0.734598 5.681818,0 11.263195,-0.533716 11.263195,-0.533716 l 0.100441,17.579171 c 0,4.545454 -5.053574,5.534647 -8.399033,5.591402 -3.472684,0.05891 -1.828239,0.09042 -5.23733,0.09042 -3.409091,-2e-6 -9.0909094,-1.136364 -9.0909094,-5.681818 z"
         id="rect820"
         inkscape:connector-curvature="0"
         sodipodi:nodetypes="czccsccc" />
      <path
         style="fill:#000000;fill-opacity:1;stroke-width:1.33715558"
         d="m 8.0722655,-7.3780852 c 0,0 8.4691735,3.4941465 12.4235885,5.7355224 3.954414,2.24137569 11.302899,7.7127305 11.302899,7.7127305 l -1.681032,2.9658112 c 0,0 -6.491965,-2.3734603 -12.423587,-5.7355237 C 11.762513,-0.06160833 6.3912343,-4.412275 6.3912343,-4.412275 Z"
         id="rect823"
         inkscape:connector-curvature="0"
         sodipodi:nodetypes="czcczcc" />
      <rect
         style="fill:#000000;fill-opacity:1;stroke-width:1.13636363"
         id="rect825"
         width="11.363636"
         height="3.4090908"
         x="11.33903"
         y="-12.671904"
         ry="0"
         transform="rotate(29.544712)" />
      <path
         style="fill:#000007;fill-opacity:1;stroke:none;stroke-width:1.13636363;stroke-miterlimit:4;stroke-dasharray:none;stroke-opacity:1"
         d="m 6.0108118,2.4519856 c 6.8181822,0 8.6041432,-0.4952768 12.6255522,6.3661959 l -3.409091,1.136364 C 13.203535,6.0670637 11.818182,5.4090906 6.1363634,5.7857456 L 7.2727271,8.8181815 -0.68181837,4.2727271 7.2727271,-0.27272755 Z"
         id="rect821"
         inkscape:connector-curvature="0"
         sodipodi:nodetypes="cccccccc" />
    </g>
  </g>
</svg>
